<mxfile host="app.diagrams.net" modified="2023-11-12T15:07:14.093Z" agent="Mozilla/5.0 (Macintosh; Intel Mac OS X 10_15_7) AppleWebKit/537.36 (KHTML, like Gecko) Chrome/118.0.0.0 Safari/537.36" etag="pNCbd9vthaBZa1wJXDg-" version="22.1.0" type="github" pages="2">
  <diagram name="Сценарий1_Купить" id="c4acf3e9-155e-7222-9cf6-157b1a14988f">
    <mxGraphModel dx="1951" dy="764" grid="0" gridSize="10" guides="1" tooltips="1" connect="1" arrows="1" fold="1" page="0" pageScale="1" pageWidth="850" pageHeight="1100" background="none" math="0" shadow="0">
      <root>
        <mxCell id="0" />
        <mxCell id="1" parent="0" />
        <mxCell id="SWCbF4250IS1tGv3gK87-6" style="rounded=0;orthogonalLoop=1;jettySize=auto;html=1;edgeStyle=elbowEdgeStyle;elbow=vertical;" parent="1" source="T_VBmHh6CQnNHwD42FFN-5" target="FL9K62EaHGy_0KdFEDnW-7" edge="1">
          <mxGeometry relative="1" as="geometry">
            <mxPoint x="-113" y="332.5" as="sourcePoint" />
            <mxPoint x="-61.76499999999987" y="332.26" as="targetPoint" />
          </mxGeometry>
        </mxCell>
        <mxCell id="FL9K62EaHGy_0KdFEDnW-38" value="и_Купить" style="edgeLabel;html=1;align=center;verticalAlign=middle;resizable=0;points=[];" parent="SWCbF4250IS1tGv3gK87-6" vertex="1" connectable="0">
          <mxGeometry x="-0.4667" relative="1" as="geometry">
            <mxPoint x="15" as="offset" />
          </mxGeometry>
        </mxCell>
        <mxCell id="T_VBmHh6CQnNHwD42FFN-5" value="&lt;b&gt;Старт&lt;/b&gt;" style="swimlane;fontStyle=0;align=center;verticalAlign=top;childLayout=stackLayout;horizontal=1;startSize=30;horizontalStack=0;resizeParent=1;resizeParentMax=0;resizeLast=0;collapsible=0;marginBottom=0;html=1;rounded=1;absoluteArcSize=1;arcSize=50;whiteSpace=wrap;" parent="1" vertex="1">
          <mxGeometry x="-670" y="528.5" width="140" height="55" as="geometry" />
        </mxCell>
        <mxCell id="T_VBmHh6CQnNHwD42FFN-9" value="Клавиатура: &quot;Старт&quot;" style="fillColor=none;strokeColor=none;align=left;verticalAlign=middle;spacingLeft=5;whiteSpace=wrap;html=1;" parent="T_VBmHh6CQnNHwD42FFN-5" vertex="1">
          <mxGeometry y="30" width="140" height="25" as="geometry" />
        </mxCell>
        <mxCell id="FL9K62EaHGy_0KdFEDnW-3" style="edgeStyle=elbowEdgeStyle;rounded=0;orthogonalLoop=1;jettySize=auto;html=1;elbow=vertical;" parent="1" source="FL9K62EaHGy_0KdFEDnW-1" target="T_VBmHh6CQnNHwD42FFN-5" edge="1">
          <mxGeometry relative="1" as="geometry" />
        </mxCell>
        <mxCell id="FL9K62EaHGy_0KdFEDnW-1" value="" style="ellipse;whiteSpace=wrap;html=1;fillColor=#000000;" parent="1" vertex="1">
          <mxGeometry x="-727" y="546" width="20" height="20" as="geometry" />
        </mxCell>
        <mxCell id="FL9K62EaHGy_0KdFEDnW-7" value="" style="rhombus;whiteSpace=wrap;html=1;" parent="1" vertex="1">
          <mxGeometry x="-449" y="543.5" width="30" height="30" as="geometry" />
        </mxCell>
        <mxCell id="FL9K62EaHGy_0KdFEDnW-8" value="ВыборСпособа" style="swimlane;fontStyle=1;align=center;verticalAlign=top;childLayout=stackLayout;horizontal=1;startSize=30;horizontalStack=0;resizeParent=1;resizeParentMax=0;resizeLast=0;collapsible=0;marginBottom=0;html=1;rounded=1;absoluteArcSize=1;arcSize=50;whiteSpace=wrap;" parent="1" vertex="1">
          <mxGeometry x="-271" y="506" width="140" height="118" as="geometry" />
        </mxCell>
        <mxCell id="FL9K62EaHGy_0KdFEDnW-9" value="Клавиатура: &lt;br&gt;&quot;Выбор способа&quot;" style="fillColor=none;strokeColor=none;align=left;verticalAlign=middle;spacingLeft=5;whiteSpace=wrap;html=1;" parent="FL9K62EaHGy_0KdFEDnW-8" vertex="1">
          <mxGeometry y="30" width="140" height="44" as="geometry" />
        </mxCell>
        <mxCell id="yPwkJkPXcMM_xhK4CCff-2" value="ВовлекающаяФраза: &quot;Фраза1&quot;" style="fillColor=none;strokeColor=none;align=left;verticalAlign=middle;spacingLeft=5;whiteSpace=wrap;html=1;" vertex="1" parent="FL9K62EaHGy_0KdFEDnW-8">
          <mxGeometry y="74" width="140" height="44" as="geometry" />
        </mxCell>
        <mxCell id="FL9K62EaHGy_0KdFEDnW-11" style="rounded=0;orthogonalLoop=1;jettySize=auto;html=1;elbow=horizontal;edgeStyle=elbowEdgeStyle;" parent="1" source="FL9K62EaHGy_0KdFEDnW-7" target="FL9K62EaHGy_0KdFEDnW-8" edge="1">
          <mxGeometry relative="1" as="geometry">
            <mxPoint x="17" y="339.62" as="sourcePoint" />
            <mxPoint x="107" y="339.62" as="targetPoint" />
          </mxGeometry>
        </mxCell>
        <mxCell id="FL9K62EaHGy_0KdFEDnW-41" value="и_Купить&lt;br&gt;без подробностей" style="edgeLabel;html=1;align=center;verticalAlign=middle;resizable=0;points=[];" parent="FL9K62EaHGy_0KdFEDnW-11" vertex="1" connectable="0">
          <mxGeometry x="-0.5089" y="-1" relative="1" as="geometry">
            <mxPoint x="36" y="1" as="offset" />
          </mxGeometry>
        </mxCell>
        <mxCell id="q2HMm7o0KwLSOO0PUDpN-3" style="rounded=0;orthogonalLoop=1;jettySize=auto;html=1;" parent="1" source="FL9K62EaHGy_0KdFEDnW-13" target="FL9K62EaHGy_0KdFEDnW-17" edge="1">
          <mxGeometry relative="1" as="geometry" />
        </mxCell>
        <mxCell id="q2HMm7o0KwLSOO0PUDpN-7" value="Выбрано&lt;br&gt;событие" style="edgeLabel;html=1;align=center;verticalAlign=middle;resizable=0;points=[];" parent="q2HMm7o0KwLSOO0PUDpN-3" vertex="1" connectable="0">
          <mxGeometry x="-0.5749" y="4" relative="1" as="geometry">
            <mxPoint x="19" y="3" as="offset" />
          </mxGeometry>
        </mxCell>
        <mxCell id="FL9K62EaHGy_0KdFEDnW-13" value="ВыборСобытия" style="swimlane;fontStyle=1;align=center;verticalAlign=top;childLayout=stackLayout;horizontal=1;startSize=30;horizontalStack=0;resizeParent=1;resizeParentMax=0;resizeLast=0;collapsible=0;marginBottom=0;html=1;rounded=1;absoluteArcSize=1;arcSize=50;whiteSpace=wrap;" parent="1" vertex="1">
          <mxGeometry x="81" y="512" width="140" height="88" as="geometry" />
        </mxCell>
        <mxCell id="FL9K62EaHGy_0KdFEDnW-14" value="Клавиатура: &quot;Выбор события&quot;" style="fillColor=none;strokeColor=none;align=left;verticalAlign=middle;spacingLeft=5;whiteSpace=wrap;html=1;" parent="FL9K62EaHGy_0KdFEDnW-13" vertex="1">
          <mxGeometry y="30" width="140" height="25" as="geometry" />
        </mxCell>
        <mxCell id="eSUh50LeGdBLvh848-gK-1" value="" style="line;strokeWidth=1;fillColor=none;align=left;verticalAlign=middle;spacingTop=-1;spacingLeft=3;spacingRight=3;rotatable=0;labelPosition=right;points=[];portConstraint=eastwest;" parent="FL9K62EaHGy_0KdFEDnW-13" vertex="1">
          <mxGeometry y="55" width="140" height="8" as="geometry" />
        </mxCell>
        <mxCell id="eSUh50LeGdBLvh848-gK-2" value="exit / setSetting" style="fillColor=none;strokeColor=none;align=left;verticalAlign=middle;spacingLeft=5;whiteSpace=wrap;html=1;" parent="FL9K62EaHGy_0KdFEDnW-13" vertex="1">
          <mxGeometry y="63" width="140" height="25" as="geometry" />
        </mxCell>
        <mxCell id="FL9K62EaHGy_0KdFEDnW-58" style="rounded=0;orthogonalLoop=1;jettySize=auto;html=1;" parent="1" source="FL9K62EaHGy_0KdFEDnW-17" target="FL9K62EaHGy_0KdFEDnW-20" edge="1">
          <mxGeometry relative="1" as="geometry" />
        </mxCell>
        <mxCell id="ffJ6PwLNoABF6Ka8uKUp-25" value="Выбран пол" style="edgeLabel;html=1;align=center;verticalAlign=middle;resizable=0;points=[];" parent="FL9K62EaHGy_0KdFEDnW-58" vertex="1" connectable="0">
          <mxGeometry y="1" relative="1" as="geometry">
            <mxPoint x="-20" y="1" as="offset" />
          </mxGeometry>
        </mxCell>
        <mxCell id="FL9K62EaHGy_0KdFEDnW-17" value="ВыборПола" style="swimlane;fontStyle=1;align=center;verticalAlign=top;childLayout=stackLayout;horizontal=1;startSize=30;horizontalStack=0;resizeParent=1;resizeParentMax=0;resizeLast=0;collapsible=0;marginBottom=0;html=1;rounded=1;absoluteArcSize=1;arcSize=50;whiteSpace=wrap;" parent="1" vertex="1">
          <mxGeometry x="318" y="512" width="140" height="88" as="geometry" />
        </mxCell>
        <mxCell id="FL9K62EaHGy_0KdFEDnW-18" value="Клавиатура: &quot;Выбор пола&quot;" style="fillColor=none;strokeColor=none;align=left;verticalAlign=middle;spacingLeft=5;whiteSpace=wrap;html=1;" parent="FL9K62EaHGy_0KdFEDnW-17" vertex="1">
          <mxGeometry y="30" width="140" height="25" as="geometry" />
        </mxCell>
        <mxCell id="q2HMm7o0KwLSOO0PUDpN-49" value="" style="line;strokeWidth=1;fillColor=none;align=left;verticalAlign=middle;spacingTop=-1;spacingLeft=3;spacingRight=3;rotatable=0;labelPosition=right;points=[];portConstraint=eastwest;" parent="FL9K62EaHGy_0KdFEDnW-17" vertex="1">
          <mxGeometry y="55" width="140" height="8" as="geometry" />
        </mxCell>
        <mxCell id="q2HMm7o0KwLSOO0PUDpN-50" value="exit / setGender" style="fillColor=none;strokeColor=none;align=left;verticalAlign=middle;spacingLeft=5;whiteSpace=wrap;html=1;" parent="FL9K62EaHGy_0KdFEDnW-17" vertex="1">
          <mxGeometry y="63" width="140" height="25" as="geometry" />
        </mxCell>
        <mxCell id="FL9K62EaHGy_0KdFEDnW-61" style="edgeStyle=orthogonalEdgeStyle;rounded=0;orthogonalLoop=1;jettySize=auto;html=1;" parent="1" source="FL9K62EaHGy_0KdFEDnW-20" target="FL9K62EaHGy_0KdFEDnW-23" edge="1">
          <mxGeometry relative="1" as="geometry">
            <Array as="points">
              <mxPoint x="833" y="539" />
              <mxPoint x="833" y="539" />
            </Array>
          </mxGeometry>
        </mxCell>
        <mxCell id="q2HMm7o0KwLSOO0PUDpN-8" value="и_Оформить заказ" style="edgeLabel;html=1;align=center;verticalAlign=middle;resizable=0;points=[];" parent="FL9K62EaHGy_0KdFEDnW-61" vertex="1" connectable="0">
          <mxGeometry x="-0.0403" y="1" relative="1" as="geometry">
            <mxPoint x="10" y="1" as="offset" />
          </mxGeometry>
        </mxCell>
        <mxCell id="FL9K62EaHGy_0KdFEDnW-62" style="rounded=0;orthogonalLoop=1;jettySize=auto;html=1;edgeStyle=orthogonalEdgeStyle;" parent="1" source="FL9K62EaHGy_0KdFEDnW-20" target="FL9K62EaHGy_0KdFEDnW-26" edge="1">
          <mxGeometry relative="1" as="geometry">
            <mxPoint x="723" y="537.25" as="sourcePoint" />
            <Array as="points">
              <mxPoint x="752" y="539" />
              <mxPoint x="752" y="601" />
              <mxPoint x="751" y="601" />
            </Array>
          </mxGeometry>
        </mxCell>
        <mxCell id="FL9K62EaHGy_0KdFEDnW-63" value="и_Уточнить" style="edgeLabel;html=1;align=center;verticalAlign=middle;resizable=0;points=[];" parent="FL9K62EaHGy_0KdFEDnW-62" vertex="1" connectable="0">
          <mxGeometry x="-0.2086" y="1" relative="1" as="geometry">
            <mxPoint x="3" y="55" as="offset" />
          </mxGeometry>
        </mxCell>
        <mxCell id="FL9K62EaHGy_0KdFEDnW-23" value="Заявка" style="swimlane;fontStyle=1;align=center;verticalAlign=top;childLayout=stackLayout;horizontal=1;startSize=30;horizontalStack=0;resizeParent=1;resizeParentMax=0;resizeLast=0;collapsible=0;marginBottom=0;html=1;rounded=1;absoluteArcSize=1;arcSize=50;whiteSpace=wrap;" parent="1" vertex="1">
          <mxGeometry x="901" y="507" width="140" height="107" as="geometry" />
        </mxCell>
        <mxCell id="q2HMm7o0KwLSOO0PUDpN-47" value="" style="line;strokeWidth=1;fillColor=none;align=left;verticalAlign=middle;spacingTop=-1;spacingLeft=3;spacingRight=3;rotatable=0;labelPosition=right;points=[];portConstraint=eastwest;" parent="FL9K62EaHGy_0KdFEDnW-23" vertex="1">
          <mxGeometry y="30" width="140" height="8" as="geometry" />
        </mxCell>
        <mxCell id="yPwkJkPXcMM_xhK4CCff-8" value="ВовлекающаяФраза: &quot;Фраза3&quot;" style="fillColor=none;strokeColor=none;align=left;verticalAlign=middle;spacingLeft=5;whiteSpace=wrap;html=1;" vertex="1" parent="FL9K62EaHGy_0KdFEDnW-23">
          <mxGeometry y="38" width="140" height="44" as="geometry" />
        </mxCell>
        <mxCell id="q2HMm7o0KwLSOO0PUDpN-48" value="exit / setOrder" style="fillColor=none;strokeColor=none;align=left;verticalAlign=middle;spacingLeft=5;whiteSpace=wrap;html=1;" parent="FL9K62EaHGy_0KdFEDnW-23" vertex="1">
          <mxGeometry y="82" width="140" height="25" as="geometry" />
        </mxCell>
        <mxCell id="FL9K62EaHGy_0KdFEDnW-68" style="rounded=0;orthogonalLoop=1;jettySize=auto;html=1;" parent="1" source="FL9K62EaHGy_0KdFEDnW-26" target="FL9K62EaHGy_0KdFEDnW-67" edge="1">
          <mxGeometry relative="1" as="geometry" />
        </mxCell>
        <mxCell id="q2HMm7o0KwLSOO0PUDpN-14" style="rounded=0;orthogonalLoop=1;jettySize=auto;html=1;" parent="1" source="FL9K62EaHGy_0KdFEDnW-30" target="ffJ6PwLNoABF6Ka8uKUp-5" edge="1">
          <mxGeometry relative="1" as="geometry" />
        </mxCell>
        <mxCell id="FL9K62EaHGy_0KdFEDnW-30" value="ВыборБренда" style="swimlane;fontStyle=1;align=center;verticalAlign=top;childLayout=stackLayout;horizontal=1;startSize=30;horizontalStack=0;resizeParent=1;resizeParentMax=0;resizeLast=0;collapsible=0;marginBottom=0;html=1;rounded=1;absoluteArcSize=1;arcSize=50;whiteSpace=wrap;" parent="1" vertex="1">
          <mxGeometry x="343" y="979" width="140" height="63" as="geometry" />
        </mxCell>
        <mxCell id="ffJ6PwLNoABF6Ka8uKUp-10" value="" style="line;strokeWidth=1;fillColor=none;align=left;verticalAlign=middle;spacingTop=-1;spacingLeft=3;spacingRight=3;rotatable=0;labelPosition=right;points=[];portConstraint=eastwest;" parent="FL9K62EaHGy_0KdFEDnW-30" vertex="1">
          <mxGeometry y="30" width="140" height="8" as="geometry" />
        </mxCell>
        <mxCell id="ffJ6PwLNoABF6Ka8uKUp-11" value="exit / setBrand" style="fillColor=none;strokeColor=none;align=left;verticalAlign=middle;spacingLeft=5;whiteSpace=wrap;html=1;" parent="FL9K62EaHGy_0KdFEDnW-30" vertex="1">
          <mxGeometry y="38" width="140" height="25" as="geometry" />
        </mxCell>
        <mxCell id="FL9K62EaHGy_0KdFEDnW-35" value="ВыборМеханизма" style="swimlane;fontStyle=1;align=center;verticalAlign=top;childLayout=stackLayout;horizontal=1;startSize=30;horizontalStack=0;resizeParent=1;resizeParentMax=0;resizeLast=0;collapsible=0;marginBottom=0;html=1;rounded=1;absoluteArcSize=1;arcSize=50;whiteSpace=wrap;" parent="1" vertex="1">
          <mxGeometry x="879" y="969" width="140" height="63" as="geometry" />
        </mxCell>
        <mxCell id="ffJ6PwLNoABF6Ka8uKUp-16" value="" style="line;strokeWidth=1;fillColor=none;align=left;verticalAlign=middle;spacingTop=-1;spacingLeft=3;spacingRight=3;rotatable=0;labelPosition=right;points=[];portConstraint=eastwest;" parent="FL9K62EaHGy_0KdFEDnW-35" vertex="1">
          <mxGeometry y="30" width="140" height="8" as="geometry" />
        </mxCell>
        <mxCell id="ffJ6PwLNoABF6Ka8uKUp-17" value="exit / setСlockwork" style="fillColor=none;strokeColor=none;align=left;verticalAlign=middle;spacingLeft=5;whiteSpace=wrap;html=1;" parent="FL9K62EaHGy_0KdFEDnW-35" vertex="1">
          <mxGeometry y="38" width="140" height="25" as="geometry" />
        </mxCell>
        <mxCell id="FL9K62EaHGy_0KdFEDnW-36" value="ВыборМатериала" style="swimlane;fontStyle=1;align=center;verticalAlign=top;childLayout=stackLayout;horizontal=1;startSize=30;horizontalStack=0;resizeParent=1;resizeParentMax=0;resizeLast=0;collapsible=0;marginBottom=0;html=1;rounded=1;absoluteArcSize=1;arcSize=50;whiteSpace=wrap;" parent="1" vertex="1">
          <mxGeometry x="1071" y="967" width="140" height="63" as="geometry" />
        </mxCell>
        <mxCell id="ffJ6PwLNoABF6Ka8uKUp-18" value="" style="line;strokeWidth=1;fillColor=none;align=left;verticalAlign=middle;spacingTop=-1;spacingLeft=3;spacingRight=3;rotatable=0;labelPosition=right;points=[];portConstraint=eastwest;" parent="FL9K62EaHGy_0KdFEDnW-36" vertex="1">
          <mxGeometry y="30" width="140" height="8" as="geometry" />
        </mxCell>
        <mxCell id="ffJ6PwLNoABF6Ka8uKUp-19" value="exit / setMaterial" style="fillColor=none;strokeColor=none;align=left;verticalAlign=middle;spacingLeft=5;whiteSpace=wrap;html=1;" parent="FL9K62EaHGy_0KdFEDnW-36" vertex="1">
          <mxGeometry y="38" width="140" height="25" as="geometry" />
        </mxCell>
        <mxCell id="FL9K62EaHGy_0KdFEDnW-39" style="rounded=0;orthogonalLoop=1;jettySize=auto;html=1;elbow=vertical;edgeStyle=orthogonalEdgeStyle;" parent="1" source="FL9K62EaHGy_0KdFEDnW-7" edge="1">
          <mxGeometry relative="1" as="geometry">
            <mxPoint x="20" y="430" as="sourcePoint" />
            <mxPoint x="541" y="554" as="targetPoint" />
            <Array as="points">
              <mxPoint x="-434" y="417" />
              <mxPoint x="541" y="417" />
              <mxPoint x="541" y="554" />
            </Array>
          </mxGeometry>
        </mxCell>
        <mxCell id="FL9K62EaHGy_0KdFEDnW-40" value="и_Купить&lt;br&gt;с подробностями" style="edgeLabel;html=1;align=center;verticalAlign=middle;resizable=0;points=[];" parent="FL9K62EaHGy_0KdFEDnW-39" vertex="1" connectable="0">
          <mxGeometry x="-0.1618" y="1" relative="1" as="geometry">
            <mxPoint x="37" y="3" as="offset" />
          </mxGeometry>
        </mxCell>
        <mxCell id="FL9K62EaHGy_0KdFEDnW-42" style="edgeStyle=elbowEdgeStyle;rounded=0;orthogonalLoop=1;jettySize=auto;html=1;elbow=vertical;" parent="1" source="FL9K62EaHGy_0KdFEDnW-8" target="FL9K62EaHGy_0KdFEDnW-46" edge="1">
          <mxGeometry relative="1" as="geometry">
            <mxPoint x="9.339999999999918" y="643.8599999999999" as="targetPoint" />
          </mxGeometry>
        </mxCell>
        <mxCell id="FL9K62EaHGy_0KdFEDnW-46" value="" style="rhombus;whiteSpace=wrap;html=1;" parent="1" vertex="1">
          <mxGeometry x="-90" y="550" width="30" height="30" as="geometry" />
        </mxCell>
        <mxCell id="FL9K62EaHGy_0KdFEDnW-47" style="rounded=0;orthogonalLoop=1;jettySize=auto;html=1;elbow=vertical;edgeStyle=elbowEdgeStyle;" parent="1" source="FL9K62EaHGy_0KdFEDnW-46" target="FL9K62EaHGy_0KdFEDnW-13" edge="1">
          <mxGeometry relative="1" as="geometry">
            <mxPoint x="305" y="482.03" as="sourcePoint" />
            <mxPoint x="305" y="470.0025925925926" as="targetPoint" />
          </mxGeometry>
        </mxCell>
        <mxCell id="FL9K62EaHGy_0KdFEDnW-48" value="и_Выбор события" style="edgeLabel;html=1;align=center;verticalAlign=middle;resizable=0;points=[];" parent="FL9K62EaHGy_0KdFEDnW-47" vertex="1" connectable="0">
          <mxGeometry x="-0.5089" y="-1" relative="1" as="geometry">
            <mxPoint x="44" as="offset" />
          </mxGeometry>
        </mxCell>
        <mxCell id="FL9K62EaHGy_0KdFEDnW-51" style="rounded=0;orthogonalLoop=1;jettySize=auto;html=1;elbow=horizontal;edgeStyle=orthogonalEdgeStyle;" parent="1" source="FL9K62EaHGy_0KdFEDnW-46" target="9RJeNOhsSgj_mSgTUlDW-15" edge="1">
          <mxGeometry relative="1" as="geometry">
            <mxPoint x="10" y="660" as="sourcePoint" />
            <mxPoint x="275" y="888" as="targetPoint" />
            <Array as="points">
              <mxPoint x="-75" y="855" />
              <mxPoint x="413" y="855" />
            </Array>
          </mxGeometry>
        </mxCell>
        <mxCell id="FL9K62EaHGy_0KdFEDnW-52" value="и_Выбор бренда" style="edgeLabel;html=1;align=center;verticalAlign=middle;resizable=0;points=[];" parent="FL9K62EaHGy_0KdFEDnW-51" vertex="1" connectable="0">
          <mxGeometry x="-0.5089" y="-1" relative="1" as="geometry">
            <mxPoint x="190" y="76" as="offset" />
          </mxGeometry>
        </mxCell>
        <mxCell id="FL9K62EaHGy_0KdFEDnW-53" style="rounded=0;orthogonalLoop=1;jettySize=auto;html=1;elbow=horizontal;edgeStyle=orthogonalEdgeStyle;" parent="1" source="FL9K62EaHGy_0KdFEDnW-46" target="9RJeNOhsSgj_mSgTUlDW-14" edge="1">
          <mxGeometry relative="1" as="geometry">
            <mxPoint x="111" y="614.5" as="sourcePoint" />
            <mxPoint x="529" y="802" as="targetPoint" />
            <Array as="points">
              <mxPoint x="-75" y="797" />
              <mxPoint x="600" y="797" />
            </Array>
          </mxGeometry>
        </mxCell>
        <mxCell id="FL9K62EaHGy_0KdFEDnW-54" value="и_Выбор цены" style="edgeLabel;html=1;align=center;verticalAlign=middle;resizable=0;points=[];" parent="FL9K62EaHGy_0KdFEDnW-53" vertex="1" connectable="0">
          <mxGeometry x="-0.5089" y="-1" relative="1" as="geometry">
            <mxPoint x="288" y="-1" as="offset" />
          </mxGeometry>
        </mxCell>
        <mxCell id="FL9K62EaHGy_0KdFEDnW-55" style="rounded=0;orthogonalLoop=1;jettySize=auto;html=1;elbow=horizontal;edgeStyle=orthogonalEdgeStyle;" parent="1" source="FL9K62EaHGy_0KdFEDnW-46" target="FL9K62EaHGy_0KdFEDnW-17" edge="1">
          <mxGeometry relative="1" as="geometry">
            <mxPoint x="121" y="624.5" as="sourcePoint" />
            <mxPoint x="-90" y="860" as="targetPoint" />
            <Array as="points">
              <mxPoint x="-72" y="464" />
              <mxPoint x="294" y="464" />
              <mxPoint x="294" y="556" />
            </Array>
          </mxGeometry>
        </mxCell>
        <mxCell id="FL9K62EaHGy_0KdFEDnW-56" value="и_Выбор новинки,&lt;br&gt;и_Случайный выбор" style="edgeLabel;html=1;align=center;verticalAlign=middle;resizable=0;points=[];" parent="FL9K62EaHGy_0KdFEDnW-55" vertex="1" connectable="0">
          <mxGeometry x="-0.5089" y="-1" relative="1" as="geometry">
            <mxPoint x="129" y="-3" as="offset" />
          </mxGeometry>
        </mxCell>
        <mxCell id="FL9K62EaHGy_0KdFEDnW-69" style="rounded=0;orthogonalLoop=1;jettySize=auto;html=1;" parent="1" source="FL9K62EaHGy_0KdFEDnW-67" target="9RJeNOhsSgj_mSgTUlDW-14" edge="1">
          <mxGeometry relative="1" as="geometry">
            <mxPoint x="607.0000000000002" y="997" as="targetPoint" />
          </mxGeometry>
        </mxCell>
        <mxCell id="q2HMm7o0KwLSOO0PUDpN-31" value="и_Выбрать цену" style="edgeLabel;html=1;align=center;verticalAlign=middle;resizable=0;points=[];" parent="FL9K62EaHGy_0KdFEDnW-69" vertex="1" connectable="0">
          <mxGeometry x="0.3813" relative="1" as="geometry">
            <mxPoint x="10" y="-2" as="offset" />
          </mxGeometry>
        </mxCell>
        <mxCell id="FL9K62EaHGy_0KdFEDnW-70" style="rounded=0;orthogonalLoop=1;jettySize=auto;html=1;entryX=0.015;entryY=0.218;entryDx=0;entryDy=0;entryPerimeter=0;" parent="1" source="FL9K62EaHGy_0KdFEDnW-67" target="9RJeNOhsSgj_mSgTUlDW-15" edge="1">
          <mxGeometry relative="1" as="geometry">
            <mxPoint x="472" y="880" as="targetPoint" />
          </mxGeometry>
        </mxCell>
        <mxCell id="q2HMm7o0KwLSOO0PUDpN-10" value="и_Выбор бренда" style="edgeLabel;html=1;align=center;verticalAlign=middle;resizable=0;points=[];" parent="FL9K62EaHGy_0KdFEDnW-70" vertex="1" connectable="0">
          <mxGeometry x="-0.0771" relative="1" as="geometry">
            <mxPoint x="-75" y="18" as="offset" />
          </mxGeometry>
        </mxCell>
        <mxCell id="FL9K62EaHGy_0KdFEDnW-72" style="rounded=0;orthogonalLoop=1;jettySize=auto;html=1;edgeStyle=orthogonalEdgeStyle;" parent="1" source="FL9K62EaHGy_0KdFEDnW-67" target="FL9K62EaHGy_0KdFEDnW-35" edge="1">
          <mxGeometry relative="1" as="geometry" />
        </mxCell>
        <mxCell id="q2HMm7o0KwLSOO0PUDpN-33" value="и_Выбрать механизм" style="edgeLabel;html=1;align=center;verticalAlign=middle;resizable=0;points=[];" parent="FL9K62EaHGy_0KdFEDnW-72" vertex="1" connectable="0">
          <mxGeometry x="0.2548" y="-3" relative="1" as="geometry">
            <mxPoint x="-3" y="64" as="offset" />
          </mxGeometry>
        </mxCell>
        <mxCell id="FL9K62EaHGy_0KdFEDnW-73" style="rounded=0;orthogonalLoop=1;jettySize=auto;html=1;edgeStyle=orthogonalEdgeStyle;" parent="1" source="FL9K62EaHGy_0KdFEDnW-67" target="FL9K62EaHGy_0KdFEDnW-36" edge="1">
          <mxGeometry relative="1" as="geometry">
            <mxPoint x="1146" y="954.8600000000001" as="targetPoint" />
          </mxGeometry>
        </mxCell>
        <mxCell id="q2HMm7o0KwLSOO0PUDpN-34" value="и_Выбрать материал" style="edgeLabel;html=1;align=center;verticalAlign=middle;resizable=0;points=[];" parent="FL9K62EaHGy_0KdFEDnW-73" vertex="1" connectable="0">
          <mxGeometry x="0.605" y="3" relative="1" as="geometry">
            <mxPoint x="-16" y="36" as="offset" />
          </mxGeometry>
        </mxCell>
        <mxCell id="FL9K62EaHGy_0KdFEDnW-67" value="" style="rhombus;whiteSpace=wrap;html=1;" parent="1" vertex="1">
          <mxGeometry x="748" y="806" width="30" height="30" as="geometry" />
        </mxCell>
        <mxCell id="q2HMm7o0KwLSOO0PUDpN-46" style="edgeStyle=orthogonalEdgeStyle;rounded=0;orthogonalLoop=1;jettySize=auto;html=1;" parent="1" source="ffJ6PwLNoABF6Ka8uKUp-5" edge="1">
          <mxGeometry relative="1" as="geometry">
            <Array as="points">
              <mxPoint x="781" y="1224" />
              <mxPoint x="1356" y="1224" />
              <mxPoint x="1356" y="418" />
              <mxPoint x="562" y="418" />
              <mxPoint x="562" y="554" />
            </Array>
            <mxPoint x="562" y="554" as="targetPoint" />
          </mxGeometry>
        </mxCell>
        <mxCell id="ffJ6PwLNoABF6Ka8uKUp-5" value="" style="rounded=0;whiteSpace=wrap;html=1;fillColor=#030303;rotation=90;" parent="1" vertex="1">
          <mxGeometry x="758" y="1119" width="10" height="80" as="geometry" />
        </mxCell>
        <mxCell id="ffJ6PwLNoABF6Ka8uKUp-26" value="к схеме приложить: модель данных часов (концептуальную), описание всех возможных интентов, описание методов (действий)" style="text;html=1;strokeColor=none;fillColor=none;align=center;verticalAlign=middle;whiteSpace=wrap;rounded=0;fontSize=18;" parent="1" vertex="1">
          <mxGeometry x="1450" y="297" width="480" height="40" as="geometry" />
        </mxCell>
        <mxCell id="q2HMm7o0KwLSOO0PUDpN-1" value="" style="rounded=0;orthogonalLoop=1;jettySize=auto;html=1;edgeStyle=orthogonalEdgeStyle;" parent="1" source="FL9K62EaHGy_0KdFEDnW-67" target="FL9K62EaHGy_0KdFEDnW-34" edge="1">
          <mxGeometry relative="1" as="geometry">
            <mxPoint x="743.2" y="931" as="sourcePoint" />
            <mxPoint x="743.2" y="1098" as="targetPoint" />
          </mxGeometry>
        </mxCell>
        <mxCell id="q2HMm7o0KwLSOO0PUDpN-32" value="и_Выбрать цвет" style="edgeLabel;html=1;align=center;verticalAlign=middle;resizable=0;points=[];" parent="q2HMm7o0KwLSOO0PUDpN-1" vertex="1" connectable="0">
          <mxGeometry x="0.3386" y="2" relative="1" as="geometry">
            <mxPoint as="offset" />
          </mxGeometry>
        </mxCell>
        <mxCell id="FL9K62EaHGy_0KdFEDnW-34" value="ВыборЦвета" style="swimlane;fontStyle=1;align=center;verticalAlign=top;childLayout=stackLayout;horizontal=1;startSize=30;horizontalStack=0;resizeParent=1;resizeParentMax=0;resizeLast=0;collapsible=0;marginBottom=0;html=1;rounded=1;absoluteArcSize=1;arcSize=50;whiteSpace=wrap;" parent="1" vertex="1">
          <mxGeometry x="693" y="971.86" width="140" height="63" as="geometry" />
        </mxCell>
        <mxCell id="ffJ6PwLNoABF6Ka8uKUp-12" value="" style="line;strokeWidth=1;fillColor=none;align=left;verticalAlign=middle;spacingTop=-1;spacingLeft=3;spacingRight=3;rotatable=0;labelPosition=right;points=[];portConstraint=eastwest;" parent="FL9K62EaHGy_0KdFEDnW-34" vertex="1">
          <mxGeometry y="30" width="140" height="8" as="geometry" />
        </mxCell>
        <mxCell id="ffJ6PwLNoABF6Ka8uKUp-13" value="exit / setСolor" style="fillColor=none;strokeColor=none;align=left;verticalAlign=middle;spacingLeft=5;whiteSpace=wrap;html=1;" parent="FL9K62EaHGy_0KdFEDnW-34" vertex="1">
          <mxGeometry y="38" width="140" height="25" as="geometry" />
        </mxCell>
        <mxCell id="q2HMm7o0KwLSOO0PUDpN-15" style="rounded=0;orthogonalLoop=1;jettySize=auto;html=1;" parent="1" source="FL9K62EaHGy_0KdFEDnW-37" target="ffJ6PwLNoABF6Ka8uKUp-5" edge="1">
          <mxGeometry relative="1" as="geometry" />
        </mxCell>
        <mxCell id="FL9K62EaHGy_0KdFEDnW-37" value="ВыборЦены" style="swimlane;fontStyle=1;align=center;verticalAlign=top;childLayout=stackLayout;horizontal=1;startSize=30;horizontalStack=0;resizeParent=1;resizeParentMax=0;resizeLast=0;collapsible=0;marginBottom=0;html=1;rounded=1;absoluteArcSize=1;arcSize=50;whiteSpace=wrap;" parent="1" vertex="1">
          <mxGeometry x="530" y="971.86" width="140" height="63" as="geometry" />
        </mxCell>
        <mxCell id="ffJ6PwLNoABF6Ka8uKUp-14" value="" style="line;strokeWidth=1;fillColor=none;align=left;verticalAlign=middle;spacingTop=-1;spacingLeft=3;spacingRight=3;rotatable=0;labelPosition=right;points=[];portConstraint=eastwest;" parent="FL9K62EaHGy_0KdFEDnW-37" vertex="1">
          <mxGeometry y="30" width="140" height="8" as="geometry" />
        </mxCell>
        <mxCell id="ffJ6PwLNoABF6Ka8uKUp-15" value="exit / setPrice" style="fillColor=none;strokeColor=none;align=left;verticalAlign=middle;spacingLeft=5;whiteSpace=wrap;html=1;" parent="FL9K62EaHGy_0KdFEDnW-37" vertex="1">
          <mxGeometry y="38" width="140" height="25" as="geometry" />
        </mxCell>
        <mxCell id="q2HMm7o0KwLSOO0PUDpN-16" style="rounded=0;orthogonalLoop=1;jettySize=auto;html=1;" parent="1" source="FL9K62EaHGy_0KdFEDnW-34" target="ffJ6PwLNoABF6Ka8uKUp-5" edge="1">
          <mxGeometry relative="1" as="geometry">
            <mxPoint x="661.2" y="1216" as="sourcePoint" />
            <mxPoint x="830.2" y="1458" as="targetPoint" />
          </mxGeometry>
        </mxCell>
        <mxCell id="q2HMm7o0KwLSOO0PUDpN-17" style="rounded=0;orthogonalLoop=1;jettySize=auto;html=1;" parent="1" source="FL9K62EaHGy_0KdFEDnW-36" target="ffJ6PwLNoABF6Ka8uKUp-5" edge="1">
          <mxGeometry relative="1" as="geometry">
            <mxPoint x="1079.0138662316467" y="1017.8600000000001" as="sourcePoint" />
            <mxPoint x="840.2" y="1468" as="targetPoint" />
          </mxGeometry>
        </mxCell>
        <mxCell id="q2HMm7o0KwLSOO0PUDpN-18" style="rounded=0;orthogonalLoop=1;jettySize=auto;html=1;" parent="1" source="FL9K62EaHGy_0KdFEDnW-35" target="ffJ6PwLNoABF6Ka8uKUp-5" edge="1">
          <mxGeometry relative="1" as="geometry">
            <mxPoint x="874.2" y="1216" as="sourcePoint" />
            <mxPoint x="835.2" y="1458" as="targetPoint" />
          </mxGeometry>
        </mxCell>
        <mxCell id="q2HMm7o0KwLSOO0PUDpN-26" value="" style="ellipse;html=1;shape=endState;fillColor=strokeColor;" parent="1" vertex="1">
          <mxGeometry x="1218" y="523.5" width="30" height="30" as="geometry" />
        </mxCell>
        <mxCell id="q2HMm7o0KwLSOO0PUDpN-27" style="edgeStyle=orthogonalEdgeStyle;rounded=0;orthogonalLoop=1;jettySize=auto;html=1;" parent="1" source="FL9K62EaHGy_0KdFEDnW-23" target="q2HMm7o0KwLSOO0PUDpN-26" edge="1">
          <mxGeometry relative="1" as="geometry">
            <mxPoint x="1077" y="536" as="sourcePoint" />
          </mxGeometry>
        </mxCell>
        <mxCell id="q2HMm7o0KwLSOO0PUDpN-28" value="нажать &quot;отправить заявку&quot;" style="edgeLabel;html=1;align=center;verticalAlign=middle;resizable=0;points=[];" parent="q2HMm7o0KwLSOO0PUDpN-27" vertex="1" connectable="0">
          <mxGeometry x="0.0765" relative="1" as="geometry">
            <mxPoint x="-13" y="-1" as="offset" />
          </mxGeometry>
        </mxCell>
        <mxCell id="9RJeNOhsSgj_mSgTUlDW-2" value="Заявка" style="swimlane;fontStyle=0;childLayout=stackLayout;horizontal=1;startSize=26;fillColor=none;horizontalStack=0;resizeParent=1;resizeParentMax=0;resizeLast=0;collapsible=1;marginBottom=0;whiteSpace=wrap;html=1;" parent="1" vertex="1">
          <mxGeometry x="1550" y="457" width="140" height="104" as="geometry" />
        </mxCell>
        <mxCell id="9RJeNOhsSgj_mSgTUlDW-3" value="пол" style="text;strokeColor=none;fillColor=none;align=left;verticalAlign=top;spacingLeft=4;spacingRight=4;overflow=hidden;rotatable=0;points=[[0,0.5],[1,0.5]];portConstraint=eastwest;whiteSpace=wrap;html=1;" parent="9RJeNOhsSgj_mSgTUlDW-2" vertex="1">
          <mxGeometry y="26" width="140" height="26" as="geometry" />
        </mxCell>
        <mxCell id="9RJeNOhsSgj_mSgTUlDW-5" value="событие" style="text;strokeColor=none;fillColor=none;align=left;verticalAlign=top;spacingLeft=4;spacingRight=4;overflow=hidden;rotatable=0;points=[[0,0.5],[1,0.5]];portConstraint=eastwest;whiteSpace=wrap;html=1;" parent="9RJeNOhsSgj_mSgTUlDW-2" vertex="1">
          <mxGeometry y="52" width="140" height="26" as="geometry" />
        </mxCell>
        <mxCell id="9RJeNOhsSgj_mSgTUlDW-8" value="материал" style="text;strokeColor=none;fillColor=none;align=left;verticalAlign=top;spacingLeft=4;spacingRight=4;overflow=hidden;rotatable=0;points=[[0,0.5],[1,0.5]];portConstraint=eastwest;whiteSpace=wrap;html=1;" parent="9RJeNOhsSgj_mSgTUlDW-2" vertex="1">
          <mxGeometry y="78" width="140" height="26" as="geometry" />
        </mxCell>
        <mxCell id="imrFTQZlwetwkAx5qC5p-3" style="edgeStyle=orthogonalEdgeStyle;rounded=0;orthogonalLoop=1;jettySize=auto;html=1;" parent="1" source="9RJeNOhsSgj_mSgTUlDW-14" target="FL9K62EaHGy_0KdFEDnW-37" edge="1">
          <mxGeometry relative="1" as="geometry" />
        </mxCell>
        <mxCell id="9RJeNOhsSgj_mSgTUlDW-14" value="" style="rounded=0;whiteSpace=wrap;html=1;fillColor=#030303;rotation=90;" parent="1" vertex="1">
          <mxGeometry x="595" y="874" width="10" height="80" as="geometry" />
        </mxCell>
        <mxCell id="imrFTQZlwetwkAx5qC5p-7" style="edgeStyle=orthogonalEdgeStyle;rounded=0;orthogonalLoop=1;jettySize=auto;html=1;" parent="1" source="9RJeNOhsSgj_mSgTUlDW-15" target="FL9K62EaHGy_0KdFEDnW-30" edge="1">
          <mxGeometry relative="1" as="geometry" />
        </mxCell>
        <mxCell id="9RJeNOhsSgj_mSgTUlDW-15" value="" style="rounded=0;whiteSpace=wrap;html=1;fillColor=#030303;rotation=90;" parent="1" vertex="1">
          <mxGeometry x="408" y="864" width="10" height="80" as="geometry" />
        </mxCell>
        <mxCell id="yPwkJkPXcMM_xhK4CCff-5" style="edgeStyle=orthogonalEdgeStyle;rounded=0;orthogonalLoop=1;jettySize=auto;html=1;" edge="1" parent="1" source="FL9K62EaHGy_0KdFEDnW-20">
          <mxGeometry relative="1" as="geometry">
            <mxPoint x="666" y="496" as="targetPoint" />
          </mxGeometry>
        </mxCell>
        <mxCell id="yPwkJkPXcMM_xhK4CCff-6" value="и_Показать еще&lt;br style=&quot;border-color: var(--border-color);&quot;&gt;и_Подробнее" style="edgeLabel;html=1;align=center;verticalAlign=middle;resizable=0;points=[];" vertex="1" connectable="0" parent="yPwkJkPXcMM_xhK4CCff-5">
          <mxGeometry x="0.1151" relative="1" as="geometry">
            <mxPoint x="4" y="-20" as="offset" />
          </mxGeometry>
        </mxCell>
        <mxCell id="FL9K62EaHGy_0KdFEDnW-20" value="КарточкаТовара" style="swimlane;fontStyle=1;align=center;verticalAlign=top;childLayout=stackLayout;horizontal=1;startSize=30;horizontalStack=0;resizeParent=1;resizeParentMax=0;resizeLast=0;collapsible=0;marginBottom=0;html=1;rounded=1;absoluteArcSize=1;arcSize=50;whiteSpace=wrap;" parent="1" vertex="1">
          <mxGeometry x="582" y="497" width="140" height="113" as="geometry" />
        </mxCell>
        <mxCell id="FL9K62EaHGy_0KdFEDnW-21" value="Клавиатура: &quot;Выбор товара&quot;" style="fillColor=none;strokeColor=none;align=left;verticalAlign=middle;spacingLeft=5;whiteSpace=wrap;html=1;" parent="FL9K62EaHGy_0KdFEDnW-20" vertex="1">
          <mxGeometry y="30" width="140" height="25" as="geometry" />
        </mxCell>
        <mxCell id="ffJ6PwLNoABF6Ka8uKUp-27" value="" style="line;strokeWidth=1;fillColor=none;align=left;verticalAlign=middle;spacingTop=-1;spacingLeft=3;spacingRight=3;rotatable=0;labelPosition=right;points=[];portConstraint=eastwest;" parent="FL9K62EaHGy_0KdFEDnW-20" vertex="1">
          <mxGeometry y="55" width="140" height="8" as="geometry" />
        </mxCell>
        <mxCell id="ffJ6PwLNoABF6Ka8uKUp-29" value="entry / getData" style="fillColor=none;strokeColor=none;align=left;verticalAlign=middle;spacingLeft=5;whiteSpace=wrap;html=1;" parent="FL9K62EaHGy_0KdFEDnW-20" vertex="1">
          <mxGeometry y="63" width="140" height="25" as="geometry" />
        </mxCell>
        <mxCell id="ffJ6PwLNoABF6Ka8uKUp-28" value="exit / setСolor" style="fillColor=none;strokeColor=none;align=left;verticalAlign=middle;spacingLeft=5;whiteSpace=wrap;html=1;" parent="FL9K62EaHGy_0KdFEDnW-20" vertex="1">
          <mxGeometry y="88" width="140" height="25" as="geometry" />
        </mxCell>
        <mxCell id="FL9K62EaHGy_0KdFEDnW-26" value="Уточнение" style="swimlane;fontStyle=1;align=center;verticalAlign=top;childLayout=stackLayout;horizontal=1;startSize=30;horizontalStack=0;resizeParent=1;resizeParentMax=0;resizeLast=0;collapsible=0;marginBottom=0;html=1;rounded=1;absoluteArcSize=1;arcSize=50;whiteSpace=wrap;" parent="1" vertex="1">
          <mxGeometry x="693" y="644" width="140" height="132" as="geometry" />
        </mxCell>
        <mxCell id="FL9K62EaHGy_0KdFEDnW-27" value="Клавиатура: &quot;Уточнение&quot;" style="fillColor=none;strokeColor=none;align=left;verticalAlign=middle;spacingLeft=5;whiteSpace=wrap;html=1;" parent="FL9K62EaHGy_0KdFEDnW-26" vertex="1">
          <mxGeometry y="30" width="140" height="25" as="geometry" />
        </mxCell>
        <mxCell id="yPwkJkPXcMM_xhK4CCff-3" value="ВовлекающаяФраза: &quot;Фраза1&quot;" style="fillColor=none;strokeColor=none;align=left;verticalAlign=middle;spacingLeft=5;whiteSpace=wrap;html=1;" vertex="1" parent="FL9K62EaHGy_0KdFEDnW-26">
          <mxGeometry y="55" width="140" height="44" as="geometry" />
        </mxCell>
        <mxCell id="q2HMm7o0KwLSOO0PUDpN-51" value="" style="line;strokeWidth=1;fillColor=none;align=left;verticalAlign=middle;spacingTop=-1;spacingLeft=3;spacingRight=3;rotatable=0;labelPosition=right;points=[];portConstraint=eastwest;" parent="FL9K62EaHGy_0KdFEDnW-26" vertex="1">
          <mxGeometry y="99" width="140" height="8" as="geometry" />
        </mxCell>
        <mxCell id="q2HMm7o0KwLSOO0PUDpN-52" value="exit / setDetails" style="fillColor=none;strokeColor=none;align=left;verticalAlign=middle;spacingLeft=5;whiteSpace=wrap;html=1;" parent="FL9K62EaHGy_0KdFEDnW-26" vertex="1">
          <mxGeometry y="107" width="140" height="25" as="geometry" />
        </mxCell>
        <mxCell id="9RJeNOhsSgj_mSgTUlDW-13" style="edgeStyle=orthogonalEdgeStyle;rounded=0;orthogonalLoop=1;jettySize=auto;html=1;" parent="1" source="FL9K62EaHGy_0KdFEDnW-26" target="FL9K62EaHGy_0KdFEDnW-26" edge="1">
          <mxGeometry relative="1" as="geometry" />
        </mxCell>
        <mxCell id="yPwkJkPXcMM_xhK4CCff-7" value="и_Развернутое уточнение" style="edgeLabel;html=1;align=center;verticalAlign=middle;resizable=0;points=[];" vertex="1" connectable="0" parent="9RJeNOhsSgj_mSgTUlDW-13">
          <mxGeometry x="-0.1636" y="-1" relative="1" as="geometry">
            <mxPoint x="75" y="5" as="offset" />
          </mxGeometry>
        </mxCell>
      </root>
    </mxGraphModel>
  </diagram>
  <diagram id="NRU9Yulu_dXbEhS77t4e" name="Архив">
    <mxGraphModel dx="4280" dy="2293" grid="1" gridSize="10" guides="1" tooltips="1" connect="1" arrows="1" fold="1" page="1" pageScale="1" pageWidth="827" pageHeight="1169" math="0" shadow="0">
      <root>
        <mxCell id="0" />
        <mxCell id="1" parent="0" />
        <mxCell id="oPtB8-bLimxsmcsgXv5w-1" value="State1" style="shape=folder;align=center;verticalAlign=middle;fontStyle=0;tabWidth=100;tabHeight=30;tabPosition=left;html=1;boundedLbl=1;labelInHeader=1;rounded=1;absoluteArcSize=1;arcSize=10;whiteSpace=wrap;" parent="1" vertex="1">
          <mxGeometry x="-550" y="221.5" width="140" height="90" as="geometry" />
        </mxCell>
        <mxCell id="oPtB8-bLimxsmcsgXv5w-2" value="" style="ellipse;html=1;" parent="1" vertex="1">
          <mxGeometry x="-560" y="610" width="30" height="30" as="geometry" />
        </mxCell>
        <mxCell id="oPtB8-bLimxsmcsgXv5w-3" value="" style="endArrow=open;html=1;rounded=0;align=center;verticalAlign=top;endFill=0;labelBackgroundColor=none;endSize=6;" parent="1" source="oPtB8-bLimxsmcsgXv5w-2" edge="1">
          <mxGeometry relative="1" as="geometry">
            <mxPoint x="-447" y="625" as="targetPoint" />
          </mxGeometry>
        </mxCell>
        <mxCell id="oPtB8-bLimxsmcsgXv5w-4" value="State1&lt;br&gt;[invariant1]&lt;br&gt;&amp;lt;&amp;lt;extended/final&amp;gt;&amp;gt;" style="swimlane;fontStyle=4;align=center;verticalAlign=top;childLayout=stackLayout;horizontal=1;startSize=60;horizontalStack=0;resizeParent=1;resizeParentMax=0;resizeLast=0;collapsible=0;marginBottom=0;html=1;rounded=1;absoluteArcSize=1;arcSize=50;whiteSpace=wrap;" parent="1" vertex="1">
          <mxGeometry x="-530" y="390" width="140" height="176" as="geometry" />
        </mxCell>
        <mxCell id="oPtB8-bLimxsmcsgXv5w-5" value="" style="fillColor=none;strokeColor=none;container=1;collapsible=0;" parent="oPtB8-bLimxsmcsgXv5w-4" vertex="1">
          <mxGeometry y="60" width="140" height="50" as="geometry" />
        </mxCell>
        <mxCell id="oPtB8-bLimxsmcsgXv5w-6" value="State2" style="html=1;align=center;verticalAlign=middle;rounded=1;absoluteArcSize=1;arcSize=10;whiteSpace=wrap;" parent="oPtB8-bLimxsmcsgXv5w-5" vertex="1">
          <mxGeometry x="30" y="10" width="80" height="30" as="geometry" />
        </mxCell>
        <mxCell id="oPtB8-bLimxsmcsgXv5w-7" value="" style="line;strokeWidth=1;fillColor=none;align=left;verticalAlign=middle;spacingTop=-1;spacingLeft=3;spacingRight=3;rotatable=0;labelPosition=right;points=[];portConstraint=eastwest;" parent="oPtB8-bLimxsmcsgXv5w-4" vertex="1">
          <mxGeometry y="110" width="140" height="8" as="geometry" />
        </mxCell>
        <mxCell id="oPtB8-bLimxsmcsgXv5w-8" value="behavior1" style="fillColor=none;strokeColor=none;align=left;verticalAlign=middle;spacingLeft=5;whiteSpace=wrap;html=1;" parent="oPtB8-bLimxsmcsgXv5w-4" vertex="1">
          <mxGeometry y="118" width="140" height="25" as="geometry" />
        </mxCell>
        <mxCell id="oPtB8-bLimxsmcsgXv5w-9" value="" style="line;strokeWidth=1;fillColor=none;align=left;verticalAlign=middle;spacingTop=-1;spacingLeft=3;spacingRight=3;rotatable=0;labelPosition=right;points=[];portConstraint=eastwest;" parent="oPtB8-bLimxsmcsgXv5w-4" vertex="1">
          <mxGeometry y="143" width="140" height="8" as="geometry" />
        </mxCell>
        <mxCell id="oPtB8-bLimxsmcsgXv5w-10" value="transition1" style="fillColor=none;strokeColor=none;align=left;verticalAlign=middle;spacingLeft=5;whiteSpace=wrap;html=1;" parent="oPtB8-bLimxsmcsgXv5w-4" vertex="1">
          <mxGeometry y="151" width="140" height="25" as="geometry" />
        </mxCell>
        <mxCell id="oPtB8-bLimxsmcsgXv5w-11" value="Старт" style="swimlane;fontStyle=4;align=center;verticalAlign=top;childLayout=stackLayout;horizontal=1;startSize=30;horizontalStack=0;resizeParent=1;resizeParentMax=0;resizeLast=0;collapsible=0;marginBottom=0;html=1;rounded=1;absoluteArcSize=1;arcSize=140;whiteSpace=wrap;" parent="1" vertex="1">
          <mxGeometry x="-530" y="120" width="140" height="80" as="geometry" />
        </mxCell>
        <mxCell id="oPtB8-bLimxsmcsgXv5w-12" value="behavior1" style="fillColor=none;strokeColor=none;align=left;verticalAlign=middle;spacingLeft=5;whiteSpace=wrap;html=1;" parent="oPtB8-bLimxsmcsgXv5w-11" vertex="1">
          <mxGeometry y="30" width="140" height="25" as="geometry" />
        </mxCell>
        <mxCell id="oPtB8-bLimxsmcsgXv5w-13" value="behavior1" style="fillColor=none;strokeColor=none;align=left;verticalAlign=middle;spacingLeft=5;whiteSpace=wrap;html=1;" parent="oPtB8-bLimxsmcsgXv5w-11" vertex="1">
          <mxGeometry y="55" width="140" height="25" as="geometry" />
        </mxCell>
        <mxCell id="S8csJaeQ3eJkUpWspcCP-1" style="rounded=0;orthogonalLoop=1;jettySize=auto;html=1;exitX=0.718;exitY=0.482;exitDx=0;exitDy=0;exitPerimeter=0;entryX=0;entryY=0.5;entryDx=0;entryDy=0;" parent="1" source="S8csJaeQ3eJkUpWspcCP-2" target="S8csJaeQ3eJkUpWspcCP-6" edge="1">
          <mxGeometry relative="1" as="geometry" />
        </mxCell>
        <mxCell id="S8csJaeQ3eJkUpWspcCP-2" value="" style="html=1;points=[];perimeter=orthogonalPerimeter;fillColor=strokeColor;" parent="1" vertex="1">
          <mxGeometry x="599" y="251.5" width="5" height="80" as="geometry" />
        </mxCell>
        <mxCell id="S8csJaeQ3eJkUpWspcCP-3" value="Action1&lt;br&gt;(Operation1)" style="html=1;align=center;verticalAlign=top;rounded=1;absoluteArcSize=1;arcSize=10;dashed=0;whiteSpace=wrap;" parent="1" vertex="1">
          <mxGeometry x="409" y="271.5" width="140" height="40" as="geometry" />
        </mxCell>
        <mxCell id="S8csJaeQ3eJkUpWspcCP-4" style="edgeStyle=orthogonalEdgeStyle;rounded=0;orthogonalLoop=1;jettySize=auto;html=1;entryX=0.247;entryY=0.497;entryDx=0;entryDy=0;entryPerimeter=0;" parent="1" source="S8csJaeQ3eJkUpWspcCP-3" target="S8csJaeQ3eJkUpWspcCP-2" edge="1">
          <mxGeometry relative="1" as="geometry" />
        </mxCell>
        <mxCell id="S8csJaeQ3eJkUpWspcCP-5" style="rounded=0;orthogonalLoop=1;jettySize=auto;html=1;exitX=0.407;exitY=0.479;exitDx=0;exitDy=0;exitPerimeter=0;entryX=0;entryY=0.5;entryDx=0;entryDy=0;" parent="1" source="S8csJaeQ3eJkUpWspcCP-2" target="S8csJaeQ3eJkUpWspcCP-7" edge="1">
          <mxGeometry relative="1" as="geometry">
            <mxPoint x="613" y="300.5" as="sourcePoint" />
            <mxPoint x="749" y="211.5" as="targetPoint" />
          </mxGeometry>
        </mxCell>
        <mxCell id="S8csJaeQ3eJkUpWspcCP-6" value="Action1&lt;br&gt;(Operation1)" style="html=1;align=center;verticalAlign=top;rounded=1;absoluteArcSize=1;arcSize=10;dashed=0;whiteSpace=wrap;" parent="1" vertex="1">
          <mxGeometry x="699" y="229" width="140" height="40" as="geometry" />
        </mxCell>
        <mxCell id="S8csJaeQ3eJkUpWspcCP-7" value="Action1&lt;br&gt;(Operation1)" style="html=1;align=center;verticalAlign=top;rounded=1;absoluteArcSize=1;arcSize=10;dashed=0;whiteSpace=wrap;" parent="1" vertex="1">
          <mxGeometry x="699" y="314" width="140" height="40" as="geometry" />
        </mxCell>
        <mxCell id="lnhhOsBnW4TEjS0p7J5N-1" style="rounded=0;orthogonalLoop=1;jettySize=auto;html=1;edgeStyle=elbowEdgeStyle;elbow=vertical;" edge="1" parent="1" source="lnhhOsBnW4TEjS0p7J5N-3" target="lnhhOsBnW4TEjS0p7J5N-7">
          <mxGeometry relative="1" as="geometry">
            <mxPoint x="120" y="802.5" as="sourcePoint" />
            <mxPoint x="171.23500000000013" y="802.26" as="targetPoint" />
          </mxGeometry>
        </mxCell>
        <mxCell id="lnhhOsBnW4TEjS0p7J5N-2" value="и_Купить" style="edgeLabel;html=1;align=center;verticalAlign=middle;resizable=0;points=[];" vertex="1" connectable="0" parent="lnhhOsBnW4TEjS0p7J5N-1">
          <mxGeometry x="-0.4667" relative="1" as="geometry">
            <mxPoint x="15" as="offset" />
          </mxGeometry>
        </mxCell>
        <mxCell id="lnhhOsBnW4TEjS0p7J5N-3" value="&lt;b&gt;Старт&lt;/b&gt;" style="swimlane;fontStyle=0;align=center;verticalAlign=top;childLayout=stackLayout;horizontal=1;startSize=30;horizontalStack=0;resizeParent=1;resizeParentMax=0;resizeLast=0;collapsible=0;marginBottom=0;html=1;rounded=1;absoluteArcSize=1;arcSize=50;whiteSpace=wrap;" vertex="1" parent="1">
          <mxGeometry x="-500" y="1002.5" width="140" height="55" as="geometry" />
        </mxCell>
        <mxCell id="lnhhOsBnW4TEjS0p7J5N-4" value="Клавиатура: &quot;sdp&quot;,&quot;df&quot;" style="fillColor=none;strokeColor=none;align=left;verticalAlign=middle;spacingLeft=5;whiteSpace=wrap;html=1;" vertex="1" parent="lnhhOsBnW4TEjS0p7J5N-3">
          <mxGeometry y="30" width="140" height="25" as="geometry" />
        </mxCell>
        <mxCell id="lnhhOsBnW4TEjS0p7J5N-5" style="edgeStyle=elbowEdgeStyle;rounded=0;orthogonalLoop=1;jettySize=auto;html=1;elbow=vertical;" edge="1" parent="1" source="lnhhOsBnW4TEjS0p7J5N-6" target="lnhhOsBnW4TEjS0p7J5N-3">
          <mxGeometry relative="1" as="geometry" />
        </mxCell>
        <mxCell id="lnhhOsBnW4TEjS0p7J5N-6" value="" style="ellipse;whiteSpace=wrap;html=1;fillColor=#000000;" vertex="1" parent="1">
          <mxGeometry x="-590" y="1023.5" width="20" height="20" as="geometry" />
        </mxCell>
        <mxCell id="lnhhOsBnW4TEjS0p7J5N-7" value="" style="rhombus;whiteSpace=wrap;html=1;" vertex="1" parent="1">
          <mxGeometry x="-260" y="1013.5" width="30" height="30" as="geometry" />
        </mxCell>
        <mxCell id="lnhhOsBnW4TEjS0p7J5N-8" value="ВыборСпособа" style="swimlane;fontStyle=1;align=center;verticalAlign=top;childLayout=stackLayout;horizontal=1;startSize=30;horizontalStack=0;resizeParent=1;resizeParentMax=0;resizeLast=0;collapsible=0;marginBottom=0;html=1;rounded=1;absoluteArcSize=1;arcSize=50;whiteSpace=wrap;" vertex="1" parent="1">
          <mxGeometry x="-52" y="990" width="140" height="80" as="geometry" />
        </mxCell>
        <mxCell id="lnhhOsBnW4TEjS0p7J5N-9" value="behavior1" style="fillColor=none;strokeColor=none;align=left;verticalAlign=middle;spacingLeft=5;whiteSpace=wrap;html=1;" vertex="1" parent="lnhhOsBnW4TEjS0p7J5N-8">
          <mxGeometry y="30" width="140" height="25" as="geometry" />
        </mxCell>
        <mxCell id="lnhhOsBnW4TEjS0p7J5N-10" value="behavior1" style="fillColor=none;strokeColor=none;align=left;verticalAlign=middle;spacingLeft=5;whiteSpace=wrap;html=1;" vertex="1" parent="lnhhOsBnW4TEjS0p7J5N-8">
          <mxGeometry y="55" width="140" height="25" as="geometry" />
        </mxCell>
        <mxCell id="lnhhOsBnW4TEjS0p7J5N-11" style="rounded=0;orthogonalLoop=1;jettySize=auto;html=1;elbow=horizontal;edgeStyle=elbowEdgeStyle;" edge="1" parent="1" source="lnhhOsBnW4TEjS0p7J5N-7" target="lnhhOsBnW4TEjS0p7J5N-8">
          <mxGeometry relative="1" as="geometry">
            <mxPoint x="250" y="809.62" as="sourcePoint" />
            <mxPoint x="340" y="809.62" as="targetPoint" />
          </mxGeometry>
        </mxCell>
        <mxCell id="lnhhOsBnW4TEjS0p7J5N-12" value="и_Купить&lt;br&gt;без подробностей" style="edgeLabel;html=1;align=center;verticalAlign=middle;resizable=0;points=[];" vertex="1" connectable="0" parent="lnhhOsBnW4TEjS0p7J5N-11">
          <mxGeometry x="-0.5089" y="-1" relative="1" as="geometry">
            <mxPoint x="28" y="6" as="offset" />
          </mxGeometry>
        </mxCell>
        <mxCell id="lnhhOsBnW4TEjS0p7J5N-13" style="rounded=0;orthogonalLoop=1;jettySize=auto;html=1;" edge="1" parent="1" source="lnhhOsBnW4TEjS0p7J5N-15" target="lnhhOsBnW4TEjS0p7J5N-22">
          <mxGeometry relative="1" as="geometry" />
        </mxCell>
        <mxCell id="lnhhOsBnW4TEjS0p7J5N-14" value="Выбрано&lt;br&gt;событие" style="edgeLabel;html=1;align=center;verticalAlign=middle;resizable=0;points=[];" vertex="1" connectable="0" parent="lnhhOsBnW4TEjS0p7J5N-13">
          <mxGeometry x="-0.5749" y="4" relative="1" as="geometry">
            <mxPoint x="38" y="3" as="offset" />
          </mxGeometry>
        </mxCell>
        <mxCell id="lnhhOsBnW4TEjS0p7J5N-15" value="ВыборСобытия" style="swimlane;fontStyle=1;align=center;verticalAlign=top;childLayout=stackLayout;horizontal=1;startSize=30;horizontalStack=0;resizeParent=1;resizeParentMax=0;resizeLast=0;collapsible=0;marginBottom=0;html=1;rounded=1;absoluteArcSize=1;arcSize=50;whiteSpace=wrap;" vertex="1" parent="1">
          <mxGeometry x="371" y="982" width="140" height="113" as="geometry" />
        </mxCell>
        <mxCell id="lnhhOsBnW4TEjS0p7J5N-16" value="behavior1" style="fillColor=none;strokeColor=none;align=left;verticalAlign=middle;spacingLeft=5;whiteSpace=wrap;html=1;" vertex="1" parent="lnhhOsBnW4TEjS0p7J5N-15">
          <mxGeometry y="30" width="140" height="25" as="geometry" />
        </mxCell>
        <mxCell id="lnhhOsBnW4TEjS0p7J5N-17" value="behavior1" style="fillColor=none;strokeColor=none;align=left;verticalAlign=middle;spacingLeft=5;whiteSpace=wrap;html=1;" vertex="1" parent="lnhhOsBnW4TEjS0p7J5N-15">
          <mxGeometry y="55" width="140" height="25" as="geometry" />
        </mxCell>
        <mxCell id="lnhhOsBnW4TEjS0p7J5N-18" value="" style="line;strokeWidth=1;fillColor=none;align=left;verticalAlign=middle;spacingTop=-1;spacingLeft=3;spacingRight=3;rotatable=0;labelPosition=right;points=[];portConstraint=eastwest;" vertex="1" parent="lnhhOsBnW4TEjS0p7J5N-15">
          <mxGeometry y="80" width="140" height="8" as="geometry" />
        </mxCell>
        <mxCell id="lnhhOsBnW4TEjS0p7J5N-19" value="exit / setSetting" style="fillColor=none;strokeColor=none;align=left;verticalAlign=middle;spacingLeft=5;whiteSpace=wrap;html=1;" vertex="1" parent="lnhhOsBnW4TEjS0p7J5N-15">
          <mxGeometry y="88" width="140" height="25" as="geometry" />
        </mxCell>
        <mxCell id="lnhhOsBnW4TEjS0p7J5N-20" style="rounded=0;orthogonalLoop=1;jettySize=auto;html=1;" edge="1" parent="1" source="lnhhOsBnW4TEjS0p7J5N-22" target="lnhhOsBnW4TEjS0p7J5N-78">
          <mxGeometry relative="1" as="geometry" />
        </mxCell>
        <mxCell id="lnhhOsBnW4TEjS0p7J5N-21" value="Выбран пол" style="edgeLabel;html=1;align=center;verticalAlign=middle;resizable=0;points=[];" vertex="1" connectable="0" parent="lnhhOsBnW4TEjS0p7J5N-20">
          <mxGeometry y="1" relative="1" as="geometry">
            <mxPoint as="offset" />
          </mxGeometry>
        </mxCell>
        <mxCell id="lnhhOsBnW4TEjS0p7J5N-22" value="ВыборПола" style="swimlane;fontStyle=1;align=center;verticalAlign=top;childLayout=stackLayout;horizontal=1;startSize=30;horizontalStack=0;resizeParent=1;resizeParentMax=0;resizeLast=0;collapsible=0;marginBottom=0;html=1;rounded=1;absoluteArcSize=1;arcSize=50;whiteSpace=wrap;" vertex="1" parent="1">
          <mxGeometry x="617" y="982" width="140" height="113" as="geometry" />
        </mxCell>
        <mxCell id="lnhhOsBnW4TEjS0p7J5N-23" value="behavior1" style="fillColor=none;strokeColor=none;align=left;verticalAlign=middle;spacingLeft=5;whiteSpace=wrap;html=1;" vertex="1" parent="lnhhOsBnW4TEjS0p7J5N-22">
          <mxGeometry y="30" width="140" height="25" as="geometry" />
        </mxCell>
        <mxCell id="lnhhOsBnW4TEjS0p7J5N-24" value="behavior1" style="fillColor=none;strokeColor=none;align=left;verticalAlign=middle;spacingLeft=5;whiteSpace=wrap;html=1;" vertex="1" parent="lnhhOsBnW4TEjS0p7J5N-22">
          <mxGeometry y="55" width="140" height="25" as="geometry" />
        </mxCell>
        <mxCell id="lnhhOsBnW4TEjS0p7J5N-25" value="" style="line;strokeWidth=1;fillColor=none;align=left;verticalAlign=middle;spacingTop=-1;spacingLeft=3;spacingRight=3;rotatable=0;labelPosition=right;points=[];portConstraint=eastwest;" vertex="1" parent="lnhhOsBnW4TEjS0p7J5N-22">
          <mxGeometry y="80" width="140" height="8" as="geometry" />
        </mxCell>
        <mxCell id="lnhhOsBnW4TEjS0p7J5N-26" value="exit / setGender" style="fillColor=none;strokeColor=none;align=left;verticalAlign=middle;spacingLeft=5;whiteSpace=wrap;html=1;" vertex="1" parent="lnhhOsBnW4TEjS0p7J5N-22">
          <mxGeometry y="88" width="140" height="25" as="geometry" />
        </mxCell>
        <mxCell id="lnhhOsBnW4TEjS0p7J5N-27" style="edgeStyle=orthogonalEdgeStyle;rounded=0;orthogonalLoop=1;jettySize=auto;html=1;" edge="1" parent="1" source="lnhhOsBnW4TEjS0p7J5N-78" target="lnhhOsBnW4TEjS0p7J5N-31">
          <mxGeometry relative="1" as="geometry">
            <Array as="points">
              <mxPoint x="1123" y="1009" />
              <mxPoint x="1123" y="1009" />
            </Array>
          </mxGeometry>
        </mxCell>
        <mxCell id="lnhhOsBnW4TEjS0p7J5N-28" value="и_Оформить заказ" style="edgeLabel;html=1;align=center;verticalAlign=middle;resizable=0;points=[];" vertex="1" connectable="0" parent="lnhhOsBnW4TEjS0p7J5N-27">
          <mxGeometry x="-0.0403" y="1" relative="1" as="geometry">
            <mxPoint as="offset" />
          </mxGeometry>
        </mxCell>
        <mxCell id="lnhhOsBnW4TEjS0p7J5N-29" style="rounded=0;orthogonalLoop=1;jettySize=auto;html=1;exitX=1;exitY=0.25;exitDx=0;exitDy=0;" edge="1" parent="1" source="lnhhOsBnW4TEjS0p7J5N-80" target="lnhhOsBnW4TEjS0p7J5N-93">
          <mxGeometry relative="1" as="geometry">
            <Array as="points">
              <mxPoint x="1044" y="1007" />
              <mxPoint x="1051" y="1137" />
            </Array>
          </mxGeometry>
        </mxCell>
        <mxCell id="lnhhOsBnW4TEjS0p7J5N-30" value="и_Уточнить" style="edgeLabel;html=1;align=center;verticalAlign=middle;resizable=0;points=[];" vertex="1" connectable="0" parent="lnhhOsBnW4TEjS0p7J5N-29">
          <mxGeometry x="-0.2086" y="1" relative="1" as="geometry">
            <mxPoint x="2" y="29" as="offset" />
          </mxGeometry>
        </mxCell>
        <mxCell id="lnhhOsBnW4TEjS0p7J5N-31" value="Заявка" style="swimlane;fontStyle=1;align=center;verticalAlign=top;childLayout=stackLayout;horizontal=1;startSize=30;horizontalStack=0;resizeParent=1;resizeParentMax=0;resizeLast=0;collapsible=0;marginBottom=0;html=1;rounded=1;absoluteArcSize=1;arcSize=50;whiteSpace=wrap;" vertex="1" parent="1">
          <mxGeometry x="1227" y="963.5" width="140" height="63" as="geometry" />
        </mxCell>
        <mxCell id="lnhhOsBnW4TEjS0p7J5N-32" value="" style="line;strokeWidth=1;fillColor=none;align=left;verticalAlign=middle;spacingTop=-1;spacingLeft=3;spacingRight=3;rotatable=0;labelPosition=right;points=[];portConstraint=eastwest;" vertex="1" parent="lnhhOsBnW4TEjS0p7J5N-31">
          <mxGeometry y="30" width="140" height="8" as="geometry" />
        </mxCell>
        <mxCell id="lnhhOsBnW4TEjS0p7J5N-33" value="exit / setOrder" style="fillColor=none;strokeColor=none;align=left;verticalAlign=middle;spacingLeft=5;whiteSpace=wrap;html=1;" vertex="1" parent="lnhhOsBnW4TEjS0p7J5N-31">
          <mxGeometry y="38" width="140" height="25" as="geometry" />
        </mxCell>
        <mxCell id="lnhhOsBnW4TEjS0p7J5N-34" style="rounded=0;orthogonalLoop=1;jettySize=auto;html=1;" edge="1" parent="1" source="lnhhOsBnW4TEjS0p7J5N-93" target="lnhhOsBnW4TEjS0p7J5N-65">
          <mxGeometry relative="1" as="geometry" />
        </mxCell>
        <mxCell id="lnhhOsBnW4TEjS0p7J5N-35" style="rounded=0;orthogonalLoop=1;jettySize=auto;html=1;" edge="1" parent="1" source="lnhhOsBnW4TEjS0p7J5N-36" target="lnhhOsBnW4TEjS0p7J5N-67">
          <mxGeometry relative="1" as="geometry" />
        </mxCell>
        <mxCell id="lnhhOsBnW4TEjS0p7J5N-36" value="ВыборБренда" style="swimlane;fontStyle=1;align=center;verticalAlign=top;childLayout=stackLayout;horizontal=1;startSize=30;horizontalStack=0;resizeParent=1;resizeParentMax=0;resizeLast=0;collapsible=0;marginBottom=0;html=1;rounded=1;absoluteArcSize=1;arcSize=50;whiteSpace=wrap;" vertex="1" parent="1">
          <mxGeometry x="689" y="1453" width="140" height="63" as="geometry" />
        </mxCell>
        <mxCell id="lnhhOsBnW4TEjS0p7J5N-37" value="" style="line;strokeWidth=1;fillColor=none;align=left;verticalAlign=middle;spacingTop=-1;spacingLeft=3;spacingRight=3;rotatable=0;labelPosition=right;points=[];portConstraint=eastwest;" vertex="1" parent="lnhhOsBnW4TEjS0p7J5N-36">
          <mxGeometry y="30" width="140" height="8" as="geometry" />
        </mxCell>
        <mxCell id="lnhhOsBnW4TEjS0p7J5N-38" value="exit / setBrand" style="fillColor=none;strokeColor=none;align=left;verticalAlign=middle;spacingLeft=5;whiteSpace=wrap;html=1;" vertex="1" parent="lnhhOsBnW4TEjS0p7J5N-36">
          <mxGeometry y="38" width="140" height="25" as="geometry" />
        </mxCell>
        <mxCell id="lnhhOsBnW4TEjS0p7J5N-39" value="ВыборМеханизма" style="swimlane;fontStyle=1;align=center;verticalAlign=top;childLayout=stackLayout;horizontal=1;startSize=30;horizontalStack=0;resizeParent=1;resizeParentMax=0;resizeLast=0;collapsible=0;marginBottom=0;html=1;rounded=1;absoluteArcSize=1;arcSize=50;whiteSpace=wrap;" vertex="1" parent="1">
          <mxGeometry x="1206" y="1424.8600000000001" width="140" height="63" as="geometry" />
        </mxCell>
        <mxCell id="lnhhOsBnW4TEjS0p7J5N-40" value="" style="line;strokeWidth=1;fillColor=none;align=left;verticalAlign=middle;spacingTop=-1;spacingLeft=3;spacingRight=3;rotatable=0;labelPosition=right;points=[];portConstraint=eastwest;" vertex="1" parent="lnhhOsBnW4TEjS0p7J5N-39">
          <mxGeometry y="30" width="140" height="8" as="geometry" />
        </mxCell>
        <mxCell id="lnhhOsBnW4TEjS0p7J5N-41" value="exit / setСlockwork" style="fillColor=none;strokeColor=none;align=left;verticalAlign=middle;spacingLeft=5;whiteSpace=wrap;html=1;" vertex="1" parent="lnhhOsBnW4TEjS0p7J5N-39">
          <mxGeometry y="38" width="140" height="25" as="geometry" />
        </mxCell>
        <mxCell id="lnhhOsBnW4TEjS0p7J5N-42" value="ВыборМатериала" style="swimlane;fontStyle=1;align=center;verticalAlign=top;childLayout=stackLayout;horizontal=1;startSize=30;horizontalStack=0;resizeParent=1;resizeParentMax=0;resizeLast=0;collapsible=0;marginBottom=0;html=1;rounded=1;absoluteArcSize=1;arcSize=50;whiteSpace=wrap;" vertex="1" parent="1">
          <mxGeometry x="1372" y="1430" width="140" height="63" as="geometry" />
        </mxCell>
        <mxCell id="lnhhOsBnW4TEjS0p7J5N-43" value="" style="line;strokeWidth=1;fillColor=none;align=left;verticalAlign=middle;spacingTop=-1;spacingLeft=3;spacingRight=3;rotatable=0;labelPosition=right;points=[];portConstraint=eastwest;" vertex="1" parent="lnhhOsBnW4TEjS0p7J5N-42">
          <mxGeometry y="30" width="140" height="8" as="geometry" />
        </mxCell>
        <mxCell id="lnhhOsBnW4TEjS0p7J5N-44" value="exit / setMaterial" style="fillColor=none;strokeColor=none;align=left;verticalAlign=middle;spacingLeft=5;whiteSpace=wrap;html=1;" vertex="1" parent="lnhhOsBnW4TEjS0p7J5N-42">
          <mxGeometry y="38" width="140" height="25" as="geometry" />
        </mxCell>
        <mxCell id="lnhhOsBnW4TEjS0p7J5N-45" style="rounded=0;orthogonalLoop=1;jettySize=auto;html=1;elbow=vertical;entryX=0;entryY=0.5;entryDx=0;entryDy=0;" edge="1" parent="1" source="lnhhOsBnW4TEjS0p7J5N-7" target="lnhhOsBnW4TEjS0p7J5N-80">
          <mxGeometry relative="1" as="geometry">
            <mxPoint x="310" y="900" as="sourcePoint" />
            <mxPoint x="310" y="940" as="targetPoint" />
            <Array as="points">
              <mxPoint x="-245" y="880" />
              <mxPoint x="848" y="880" />
              <mxPoint x="857" y="1019" />
            </Array>
          </mxGeometry>
        </mxCell>
        <mxCell id="lnhhOsBnW4TEjS0p7J5N-46" value="и_Купить&lt;br&gt;с подробностями" style="edgeLabel;html=1;align=center;verticalAlign=middle;resizable=0;points=[];" vertex="1" connectable="0" parent="lnhhOsBnW4TEjS0p7J5N-45">
          <mxGeometry x="-0.1618" y="1" relative="1" as="geometry">
            <mxPoint x="37" y="3" as="offset" />
          </mxGeometry>
        </mxCell>
        <mxCell id="lnhhOsBnW4TEjS0p7J5N-47" style="edgeStyle=elbowEdgeStyle;rounded=0;orthogonalLoop=1;jettySize=auto;html=1;elbow=vertical;" edge="1" parent="1" source="lnhhOsBnW4TEjS0p7J5N-8" target="lnhhOsBnW4TEjS0p7J5N-48">
          <mxGeometry relative="1" as="geometry">
            <mxPoint x="299.3399999999999" y="1113.86" as="targetPoint" />
          </mxGeometry>
        </mxCell>
        <mxCell id="lnhhOsBnW4TEjS0p7J5N-48" value="" style="rhombus;whiteSpace=wrap;html=1;" vertex="1" parent="1">
          <mxGeometry x="200" y="1020" width="30" height="30" as="geometry" />
        </mxCell>
        <mxCell id="lnhhOsBnW4TEjS0p7J5N-49" style="rounded=0;orthogonalLoop=1;jettySize=auto;html=1;elbow=horizontal;" edge="1" parent="1" source="lnhhOsBnW4TEjS0p7J5N-48" target="lnhhOsBnW4TEjS0p7J5N-15">
          <mxGeometry relative="1" as="geometry">
            <mxPoint x="595" y="952.03" as="sourcePoint" />
            <mxPoint x="595" y="940.0025925925926" as="targetPoint" />
          </mxGeometry>
        </mxCell>
        <mxCell id="lnhhOsBnW4TEjS0p7J5N-50" value="и_Выбор события" style="edgeLabel;html=1;align=center;verticalAlign=middle;resizable=0;points=[];" vertex="1" connectable="0" parent="lnhhOsBnW4TEjS0p7J5N-49">
          <mxGeometry x="-0.5089" y="-1" relative="1" as="geometry">
            <mxPoint x="44" as="offset" />
          </mxGeometry>
        </mxCell>
        <mxCell id="lnhhOsBnW4TEjS0p7J5N-51" style="rounded=0;orthogonalLoop=1;jettySize=auto;html=1;elbow=horizontal;" edge="1" parent="1" source="lnhhOsBnW4TEjS0p7J5N-48">
          <mxGeometry relative="1" as="geometry">
            <mxPoint x="300" y="1130" as="sourcePoint" />
            <mxPoint x="762" y="1307" as="targetPoint" />
            <Array as="points">
              <mxPoint x="233" y="1296" />
            </Array>
          </mxGeometry>
        </mxCell>
        <mxCell id="lnhhOsBnW4TEjS0p7J5N-52" value="и_Выбор бренда" style="edgeLabel;html=1;align=center;verticalAlign=middle;resizable=0;points=[];" vertex="1" connectable="0" parent="lnhhOsBnW4TEjS0p7J5N-51">
          <mxGeometry x="-0.5089" y="-1" relative="1" as="geometry">
            <mxPoint x="178" y="95" as="offset" />
          </mxGeometry>
        </mxCell>
        <mxCell id="lnhhOsBnW4TEjS0p7J5N-53" style="rounded=0;orthogonalLoop=1;jettySize=auto;html=1;elbow=horizontal;" edge="1" parent="1" source="lnhhOsBnW4TEjS0p7J5N-48">
          <mxGeometry relative="1" as="geometry">
            <mxPoint x="401" y="1084.5" as="sourcePoint" />
            <mxPoint x="982" y="1333" as="targetPoint" />
            <Array as="points">
              <mxPoint x="541" y="1221" />
            </Array>
          </mxGeometry>
        </mxCell>
        <mxCell id="lnhhOsBnW4TEjS0p7J5N-54" value="и_Выбор цены" style="edgeLabel;html=1;align=center;verticalAlign=middle;resizable=0;points=[];" vertex="1" connectable="0" parent="lnhhOsBnW4TEjS0p7J5N-53">
          <mxGeometry x="-0.5089" y="-1" relative="1" as="geometry">
            <mxPoint x="337" y="114" as="offset" />
          </mxGeometry>
        </mxCell>
        <mxCell id="lnhhOsBnW4TEjS0p7J5N-55" style="rounded=0;orthogonalLoop=1;jettySize=auto;html=1;elbow=horizontal;" edge="1" parent="1" source="lnhhOsBnW4TEjS0p7J5N-48" target="lnhhOsBnW4TEjS0p7J5N-22">
          <mxGeometry relative="1" as="geometry">
            <mxPoint x="411" y="1094.5" as="sourcePoint" />
            <mxPoint x="200" y="1330" as="targetPoint" />
            <Array as="points">
              <mxPoint x="220" y="940" />
              <mxPoint x="697" y="928" />
            </Array>
          </mxGeometry>
        </mxCell>
        <mxCell id="lnhhOsBnW4TEjS0p7J5N-56" value="и_Выбор новинки,&lt;br&gt;и_Случайный выбор" style="edgeLabel;html=1;align=center;verticalAlign=middle;resizable=0;points=[];" vertex="1" connectable="0" parent="lnhhOsBnW4TEjS0p7J5N-55">
          <mxGeometry x="-0.5089" y="-1" relative="1" as="geometry">
            <mxPoint x="129" y="-3" as="offset" />
          </mxGeometry>
        </mxCell>
        <mxCell id="lnhhOsBnW4TEjS0p7J5N-57" style="rounded=0;orthogonalLoop=1;jettySize=auto;html=1;" edge="1" parent="1" source="lnhhOsBnW4TEjS0p7J5N-65" target="lnhhOsBnW4TEjS0p7J5N-74">
          <mxGeometry relative="1" as="geometry">
            <mxPoint x="897.0000000000002" y="1467" as="targetPoint" />
            <Array as="points">
              <mxPoint x="973" y="1330" />
            </Array>
          </mxGeometry>
        </mxCell>
        <mxCell id="lnhhOsBnW4TEjS0p7J5N-58" value="и_Выбрать цену" style="edgeLabel;html=1;align=center;verticalAlign=middle;resizable=0;points=[];" vertex="1" connectable="0" parent="lnhhOsBnW4TEjS0p7J5N-57">
          <mxGeometry x="0.3813" relative="1" as="geometry">
            <mxPoint as="offset" />
          </mxGeometry>
        </mxCell>
        <mxCell id="lnhhOsBnW4TEjS0p7J5N-59" style="rounded=0;orthogonalLoop=1;jettySize=auto;html=1;" edge="1" parent="1" source="lnhhOsBnW4TEjS0p7J5N-65">
          <mxGeometry relative="1" as="geometry">
            <mxPoint x="756" y="1449" as="targetPoint" />
            <Array as="points">
              <mxPoint x="768" y="1307" />
            </Array>
          </mxGeometry>
        </mxCell>
        <mxCell id="lnhhOsBnW4TEjS0p7J5N-60" value="и_Выбор бренда" style="edgeLabel;html=1;align=center;verticalAlign=middle;resizable=0;points=[];" vertex="1" connectable="0" parent="lnhhOsBnW4TEjS0p7J5N-59">
          <mxGeometry x="-0.0771" relative="1" as="geometry">
            <mxPoint x="-16" y="4" as="offset" />
          </mxGeometry>
        </mxCell>
        <mxCell id="lnhhOsBnW4TEjS0p7J5N-61" style="rounded=0;orthogonalLoop=1;jettySize=auto;html=1;" edge="1" parent="1" source="lnhhOsBnW4TEjS0p7J5N-65" target="lnhhOsBnW4TEjS0p7J5N-39">
          <mxGeometry relative="1" as="geometry">
            <Array as="points">
              <mxPoint x="1279" y="1299" />
            </Array>
          </mxGeometry>
        </mxCell>
        <mxCell id="lnhhOsBnW4TEjS0p7J5N-62" value="и_Выбрать механизм" style="edgeLabel;html=1;align=center;verticalAlign=middle;resizable=0;points=[];" vertex="1" connectable="0" parent="lnhhOsBnW4TEjS0p7J5N-61">
          <mxGeometry x="0.2548" y="-3" relative="1" as="geometry">
            <mxPoint x="-3" y="64" as="offset" />
          </mxGeometry>
        </mxCell>
        <mxCell id="lnhhOsBnW4TEjS0p7J5N-63" style="rounded=0;orthogonalLoop=1;jettySize=auto;html=1;" edge="1" parent="1" source="lnhhOsBnW4TEjS0p7J5N-65">
          <mxGeometry relative="1" as="geometry">
            <mxPoint x="1436" y="1424.8600000000001" as="targetPoint" />
            <Array as="points">
              <mxPoint x="1436" y="1303" />
            </Array>
          </mxGeometry>
        </mxCell>
        <mxCell id="lnhhOsBnW4TEjS0p7J5N-64" value="и_Выбрать материал" style="edgeLabel;html=1;align=center;verticalAlign=middle;resizable=0;points=[];" vertex="1" connectable="0" parent="lnhhOsBnW4TEjS0p7J5N-63">
          <mxGeometry x="0.605" y="3" relative="1" as="geometry">
            <mxPoint x="-17" y="46" as="offset" />
          </mxGeometry>
        </mxCell>
        <mxCell id="lnhhOsBnW4TEjS0p7J5N-65" value="" style="rhombus;whiteSpace=wrap;html=1;" vertex="1" parent="1">
          <mxGeometry x="1038" y="1276" width="30" height="30" as="geometry" />
        </mxCell>
        <mxCell id="lnhhOsBnW4TEjS0p7J5N-66" style="edgeStyle=orthogonalEdgeStyle;rounded=0;orthogonalLoop=1;jettySize=auto;html=1;entryX=0.5;entryY=0;entryDx=0;entryDy=0;" edge="1" parent="1" source="lnhhOsBnW4TEjS0p7J5N-67" target="lnhhOsBnW4TEjS0p7J5N-78">
          <mxGeometry relative="1" as="geometry">
            <Array as="points">
              <mxPoint x="1071" y="1694" />
              <mxPoint x="1721" y="1694" />
              <mxPoint x="1721" y="894" />
              <mxPoint x="943" y="894" />
            </Array>
          </mxGeometry>
        </mxCell>
        <mxCell id="lnhhOsBnW4TEjS0p7J5N-67" value="" style="rounded=0;whiteSpace=wrap;html=1;fillColor=#030303;rotation=90;" vertex="1" parent="1">
          <mxGeometry x="1066" y="1588" width="10" height="80" as="geometry" />
        </mxCell>
        <mxCell id="lnhhOsBnW4TEjS0p7J5N-68" value="" style="rounded=0;orthogonalLoop=1;jettySize=auto;html=1;" edge="1" parent="1" source="lnhhOsBnW4TEjS0p7J5N-65" target="lnhhOsBnW4TEjS0p7J5N-70">
          <mxGeometry relative="1" as="geometry">
            <mxPoint x="1033.2" y="1401" as="sourcePoint" />
            <mxPoint x="1033.2" y="1568" as="targetPoint" />
            <Array as="points">
              <mxPoint x="1137" y="1295" />
            </Array>
          </mxGeometry>
        </mxCell>
        <mxCell id="lnhhOsBnW4TEjS0p7J5N-69" value="и_Выбрать цвет" style="edgeLabel;html=1;align=center;verticalAlign=middle;resizable=0;points=[];" vertex="1" connectable="0" parent="lnhhOsBnW4TEjS0p7J5N-68">
          <mxGeometry x="0.3386" y="2" relative="1" as="geometry">
            <mxPoint as="offset" />
          </mxGeometry>
        </mxCell>
        <mxCell id="lnhhOsBnW4TEjS0p7J5N-70" value="ВыборЦвета" style="swimlane;fontStyle=1;align=center;verticalAlign=top;childLayout=stackLayout;horizontal=1;startSize=30;horizontalStack=0;resizeParent=1;resizeParentMax=0;resizeLast=0;collapsible=0;marginBottom=0;html=1;rounded=1;absoluteArcSize=1;arcSize=50;whiteSpace=wrap;" vertex="1" parent="1">
          <mxGeometry x="1057" y="1441.8600000000001" width="140" height="63" as="geometry" />
        </mxCell>
        <mxCell id="lnhhOsBnW4TEjS0p7J5N-71" value="" style="line;strokeWidth=1;fillColor=none;align=left;verticalAlign=middle;spacingTop=-1;spacingLeft=3;spacingRight=3;rotatable=0;labelPosition=right;points=[];portConstraint=eastwest;" vertex="1" parent="lnhhOsBnW4TEjS0p7J5N-70">
          <mxGeometry y="30" width="140" height="8" as="geometry" />
        </mxCell>
        <mxCell id="lnhhOsBnW4TEjS0p7J5N-72" value="exit / setСolor" style="fillColor=none;strokeColor=none;align=left;verticalAlign=middle;spacingLeft=5;whiteSpace=wrap;html=1;" vertex="1" parent="lnhhOsBnW4TEjS0p7J5N-70">
          <mxGeometry y="38" width="140" height="25" as="geometry" />
        </mxCell>
        <mxCell id="lnhhOsBnW4TEjS0p7J5N-73" style="rounded=0;orthogonalLoop=1;jettySize=auto;html=1;" edge="1" parent="1" source="lnhhOsBnW4TEjS0p7J5N-74" target="lnhhOsBnW4TEjS0p7J5N-67">
          <mxGeometry relative="1" as="geometry" />
        </mxCell>
        <mxCell id="lnhhOsBnW4TEjS0p7J5N-74" value="ВыборЦены" style="swimlane;fontStyle=1;align=center;verticalAlign=top;childLayout=stackLayout;horizontal=1;startSize=30;horizontalStack=0;resizeParent=1;resizeParentMax=0;resizeLast=0;collapsible=0;marginBottom=0;html=1;rounded=1;absoluteArcSize=1;arcSize=50;whiteSpace=wrap;" vertex="1" parent="1">
          <mxGeometry x="891" y="1441.8600000000001" width="140" height="63" as="geometry" />
        </mxCell>
        <mxCell id="lnhhOsBnW4TEjS0p7J5N-75" value="" style="line;strokeWidth=1;fillColor=none;align=left;verticalAlign=middle;spacingTop=-1;spacingLeft=3;spacingRight=3;rotatable=0;labelPosition=right;points=[];portConstraint=eastwest;" vertex="1" parent="lnhhOsBnW4TEjS0p7J5N-74">
          <mxGeometry y="30" width="140" height="8" as="geometry" />
        </mxCell>
        <mxCell id="lnhhOsBnW4TEjS0p7J5N-76" value="exit / setPrice" style="fillColor=none;strokeColor=none;align=left;verticalAlign=middle;spacingLeft=5;whiteSpace=wrap;html=1;" vertex="1" parent="lnhhOsBnW4TEjS0p7J5N-74">
          <mxGeometry y="38" width="140" height="25" as="geometry" />
        </mxCell>
        <mxCell id="lnhhOsBnW4TEjS0p7J5N-77" value="" style="group" vertex="1" connectable="0" parent="1">
          <mxGeometry x="843" y="902.0020716277534" width="169.99533876298767" height="157.9979283722467" as="geometry" />
        </mxCell>
        <mxCell id="lnhhOsBnW4TEjS0p7J5N-78" value="КарточкаТовара" style="swimlane;fontStyle=1;align=center;verticalAlign=top;childLayout=stackLayout;horizontal=1;startSize=30;horizontalStack=0;resizeParent=1;resizeParentMax=0;resizeLast=0;collapsible=0;marginBottom=0;html=1;rounded=1;absoluteArcSize=1;arcSize=50;whiteSpace=wrap;" vertex="1" parent="lnhhOsBnW4TEjS0p7J5N-77">
          <mxGeometry x="30" y="43.99792837224669" width="140" height="138" as="geometry" />
        </mxCell>
        <mxCell id="lnhhOsBnW4TEjS0p7J5N-79" value="behavior1" style="fillColor=none;strokeColor=none;align=left;verticalAlign=middle;spacingLeft=5;whiteSpace=wrap;html=1;" vertex="1" parent="lnhhOsBnW4TEjS0p7J5N-78">
          <mxGeometry y="30" width="140" height="25" as="geometry" />
        </mxCell>
        <mxCell id="lnhhOsBnW4TEjS0p7J5N-80" value="behavior1" style="fillColor=none;strokeColor=none;align=left;verticalAlign=middle;spacingLeft=5;whiteSpace=wrap;html=1;" vertex="1" parent="lnhhOsBnW4TEjS0p7J5N-78">
          <mxGeometry y="55" width="140" height="25" as="geometry" />
        </mxCell>
        <mxCell id="lnhhOsBnW4TEjS0p7J5N-81" value="" style="line;strokeWidth=1;fillColor=none;align=left;verticalAlign=middle;spacingTop=-1;spacingLeft=3;spacingRight=3;rotatable=0;labelPosition=right;points=[];portConstraint=eastwest;" vertex="1" parent="lnhhOsBnW4TEjS0p7J5N-78">
          <mxGeometry y="80" width="140" height="8" as="geometry" />
        </mxCell>
        <mxCell id="lnhhOsBnW4TEjS0p7J5N-82" value="entry / getData" style="fillColor=none;strokeColor=none;align=left;verticalAlign=middle;spacingLeft=5;whiteSpace=wrap;html=1;" vertex="1" parent="lnhhOsBnW4TEjS0p7J5N-78">
          <mxGeometry y="88" width="140" height="25" as="geometry" />
        </mxCell>
        <mxCell id="lnhhOsBnW4TEjS0p7J5N-83" value="exit / setСolor" style="fillColor=none;strokeColor=none;align=left;verticalAlign=middle;spacingLeft=5;whiteSpace=wrap;html=1;" vertex="1" parent="lnhhOsBnW4TEjS0p7J5N-78">
          <mxGeometry y="113" width="140" height="25" as="geometry" />
        </mxCell>
        <mxCell id="lnhhOsBnW4TEjS0p7J5N-84" value="и_Показать еще&lt;br&gt;и_Подробнее" style="edgeLabel;html=1;align=center;verticalAlign=middle;resizable=0;points=[];" vertex="1" connectable="0" parent="lnhhOsBnW4TEjS0p7J5N-77">
          <mxGeometry x="169.99533876298767" as="geometry" />
        </mxCell>
        <mxCell id="lnhhOsBnW4TEjS0p7J5N-85" style="rounded=0;orthogonalLoop=1;jettySize=auto;html=1;" edge="1" parent="1" source="lnhhOsBnW4TEjS0p7J5N-70" target="lnhhOsBnW4TEjS0p7J5N-67">
          <mxGeometry relative="1" as="geometry">
            <mxPoint x="951.2" y="1686" as="sourcePoint" />
            <mxPoint x="1120.2" y="1928" as="targetPoint" />
          </mxGeometry>
        </mxCell>
        <mxCell id="lnhhOsBnW4TEjS0p7J5N-86" style="rounded=0;orthogonalLoop=1;jettySize=auto;html=1;" edge="1" parent="1" target="lnhhOsBnW4TEjS0p7J5N-67">
          <mxGeometry relative="1" as="geometry">
            <mxPoint x="1369.0138662316467" y="1487.8600000000001" as="sourcePoint" />
            <mxPoint x="1130.2" y="1938" as="targetPoint" />
          </mxGeometry>
        </mxCell>
        <mxCell id="lnhhOsBnW4TEjS0p7J5N-87" style="rounded=0;orthogonalLoop=1;jettySize=auto;html=1;" edge="1" parent="1" source="lnhhOsBnW4TEjS0p7J5N-39" target="lnhhOsBnW4TEjS0p7J5N-67">
          <mxGeometry relative="1" as="geometry">
            <mxPoint x="1164.2" y="1686" as="sourcePoint" />
            <mxPoint x="1125.2" y="1928" as="targetPoint" />
          </mxGeometry>
        </mxCell>
        <mxCell id="lnhhOsBnW4TEjS0p7J5N-88" value="" style="ellipse;html=1;shape=endState;fillColor=strokeColor;" vertex="1" parent="1">
          <mxGeometry x="1549" y="993.5" width="30" height="30" as="geometry" />
        </mxCell>
        <mxCell id="lnhhOsBnW4TEjS0p7J5N-89" style="edgeStyle=orthogonalEdgeStyle;rounded=0;orthogonalLoop=1;jettySize=auto;html=1;" edge="1" parent="1" target="lnhhOsBnW4TEjS0p7J5N-88">
          <mxGeometry relative="1" as="geometry">
            <mxPoint x="1367" y="1006" as="sourcePoint" />
          </mxGeometry>
        </mxCell>
        <mxCell id="lnhhOsBnW4TEjS0p7J5N-90" value="нажать отправить заявку" style="edgeLabel;html=1;align=center;verticalAlign=middle;resizable=0;points=[];" vertex="1" connectable="0" parent="lnhhOsBnW4TEjS0p7J5N-89">
          <mxGeometry x="0.0765" relative="1" as="geometry">
            <mxPoint x="-12" as="offset" />
          </mxGeometry>
        </mxCell>
        <mxCell id="lnhhOsBnW4TEjS0p7J5N-91" value="" style="group" vertex="1" connectable="0" parent="1">
          <mxGeometry x="983" y="1124" width="233" height="90" as="geometry" />
        </mxCell>
        <mxCell id="lnhhOsBnW4TEjS0p7J5N-92" value="&lt;div style=&quot;text-align: center;&quot;&gt;&lt;span style=&quot;font-size: 11px;&quot;&gt;и_Развернутое уточнение&lt;/span&gt;&lt;/div&gt;" style="text;whiteSpace=wrap;html=1;" vertex="1" parent="lnhhOsBnW4TEjS0p7J5N-91">
          <mxGeometry x="113" width="120" height="50" as="geometry" />
        </mxCell>
        <mxCell id="lnhhOsBnW4TEjS0p7J5N-93" value="Уточнение" style="swimlane;fontStyle=1;align=center;verticalAlign=top;childLayout=stackLayout;horizontal=1;startSize=30;horizontalStack=0;resizeParent=1;resizeParentMax=0;resizeLast=0;collapsible=0;marginBottom=0;html=1;rounded=1;absoluteArcSize=1;arcSize=50;whiteSpace=wrap;" vertex="1" parent="lnhhOsBnW4TEjS0p7J5N-91">
          <mxGeometry y="10" width="140" height="113" as="geometry" />
        </mxCell>
        <mxCell id="lnhhOsBnW4TEjS0p7J5N-94" value="behavior1" style="fillColor=none;strokeColor=none;align=left;verticalAlign=middle;spacingLeft=5;whiteSpace=wrap;html=1;" vertex="1" parent="lnhhOsBnW4TEjS0p7J5N-93">
          <mxGeometry y="30" width="140" height="25" as="geometry" />
        </mxCell>
        <mxCell id="lnhhOsBnW4TEjS0p7J5N-95" value="behavior1" style="fillColor=none;strokeColor=none;align=left;verticalAlign=middle;spacingLeft=5;whiteSpace=wrap;html=1;" vertex="1" parent="lnhhOsBnW4TEjS0p7J5N-93">
          <mxGeometry y="55" width="140" height="25" as="geometry" />
        </mxCell>
        <mxCell id="lnhhOsBnW4TEjS0p7J5N-96" value="" style="line;strokeWidth=1;fillColor=none;align=left;verticalAlign=middle;spacingTop=-1;spacingLeft=3;spacingRight=3;rotatable=0;labelPosition=right;points=[];portConstraint=eastwest;" vertex="1" parent="lnhhOsBnW4TEjS0p7J5N-93">
          <mxGeometry y="80" width="140" height="8" as="geometry" />
        </mxCell>
        <mxCell id="lnhhOsBnW4TEjS0p7J5N-97" value="exit / df" style="fillColor=none;strokeColor=none;align=left;verticalAlign=middle;spacingLeft=5;whiteSpace=wrap;html=1;" vertex="1" parent="lnhhOsBnW4TEjS0p7J5N-93">
          <mxGeometry y="88" width="140" height="25" as="geometry" />
        </mxCell>
      </root>
    </mxGraphModel>
  </diagram>
</mxfile>
